<svg id="Layer_1" data-name="Layer 1" xmlns="http://www.w3.org/2000/svg" viewBox="0 0 1920 1080"><defs><style>.cls-1{fill:#231f20;}.cls-2{fill:#fff;}</style></defs><rect class="cls-1" width="1920" height="1080"/><path class="cls-2" d="M635.57,747.8l-3-9.21h-21l-3,9.21h-13l19.44-54h14.11l19.45,54Zm-20.53-20h14l-6.62-20.3h-.72Z"/><path class="cls-2" d="M694.54,693.8H711v54H698.79V714.32h-.72L687.63,747.8h-11l-10.23-33.48h-.71V747.8H653.42v-54h16.49l12,38.09h.72Z"/><path class="cls-2" d="M744.3,749a27.36,27.36,0,0,1-14-3.53,24.3,24.3,0,0,1-9.4-9.87,34.28,34.28,0,0,1,0-29.56,24.45,24.45,0,0,1,9.4-9.83,29.84,29.84,0,0,1,28.12,0,24.53,24.53,0,0,1,9.36,9.87,31.32,31.32,0,0,1,3.35,14.83,31,31,0,0,1-3.35,14.73,24.49,24.49,0,0,1-9.36,9.83A27.33,27.33,0,0,1,744.3,749Zm0-11.88a13.05,13.05,0,0,0,7.27-2,13.41,13.41,0,0,0,4.83-5.69,22,22,0,0,0,0-17.07,13.74,13.74,0,0,0-4.83-5.72,12.83,12.83,0,0,0-7.27-2.05,13.11,13.11,0,0,0-7.24,2,13.32,13.32,0,0,0-4.86,5.69,22.09,22.09,0,0,0,0,17.14,13.26,13.26,0,0,0,4.86,5.69A13.12,13.12,0,0,0,744.3,737.08Z"/><path class="cls-2" d="M798.38,749a26.39,26.39,0,0,1-11.24-2.31,20.51,20.51,0,0,1-8.1-6.59,22.29,22.29,0,0,1-4-10.11h12.6a10,10,0,0,0,3.31,6.12,12.13,12.13,0,0,0,13.47.75,5.33,5.33,0,0,0,2.44-4.64q0-4.47-5.4-5.26l-9.5-1.37q-7.56-1.08-11.74-5.07a14,14,0,0,1-4.18-10.55,16,16,0,0,1,2.6-9.08,17.16,17.16,0,0,1,7.16-6,24.48,24.48,0,0,1,10.62-2.16,25.3,25.3,0,0,1,10.88,2.23,19.75,19.75,0,0,1,7.7,6.3,20.46,20.46,0,0,1,3.67,9.54h-12.6a8.76,8.76,0,0,0-3.06-5.58,9.67,9.67,0,0,0-6.37-2A10.16,10.16,0,0,0,791,704.6a4.91,4.91,0,0,0-2.34,4.39q0,4.39,5.61,5.19l9.51,1.36q7.56,1.08,11.63,5.15a14.21,14.21,0,0,1,4.07,10.48,16.51,16.51,0,0,1-2.7,9.36,17.67,17.67,0,0,1-7.46,6.23A25.9,25.9,0,0,1,798.38,749Z"/><path class="cls-2" d="M863.55,718.06h24.84V747.8h-7.78l-2.3-6.26h-.72a15.8,15.8,0,0,1-6.48,5.47,22.31,22.31,0,0,1-9.65,2,23,23,0,0,1-21.61-13.4,33.27,33.27,0,0,1-3.09-14.76,31.37,31.37,0,0,1,3.31-14.8,24.43,24.43,0,0,1,9.25-9.83,26.64,26.64,0,0,1,13.86-3.52,28.19,28.19,0,0,1,11.89,2.41,22.07,22.07,0,0,1,8.57,6.8,21,21,0,0,1,4,10.23H874.35a9.3,9.3,0,0,0-3.57-5.37,11.5,11.5,0,0,0-7.23-2.19,12.89,12.89,0,0,0-7.24,2.05,13.56,13.56,0,0,0-4.86,5.69,19.71,19.71,0,0,0-1.73,8.53,19.24,19.24,0,0,0,1.8,8.57,13.4,13.4,0,0,0,5.08,5.69,14.2,14.2,0,0,0,7.59,2,12.68,12.68,0,0,0,8-2.49,9.33,9.33,0,0,0,3.71-6.44H863.55Z"/><path class="cls-2" d="M959,736.28h25V747.8H946.79v-54h36.5v11.52H959V715.4h20.66v10.8H959Z"/><path class="cls-2" d="M1002.74,736.28h25V747.8H990.5v-54H1027v11.52h-24.27V715.4h20.67v10.8h-20.67Z"/><path class="cls-2" d="M1067.33,693.8h12.24v54h-14.76l-17.64-34.49h-.72V747.8h-12.24v-54H1049l17.64,34.49h.72Z"/><path class="cls-2" d="M1146.4,693.8h13.68l-13.75,54h-15.27l-8.43-37.58h-.72l-8.42,37.58h-15.27l-13.75-54h13.68l8.57,37.51h.72l6.77-37.51h16.13l6.77,37.51h.72Z"/><path class="cls-2" d="M1186.72,749a27.36,27.36,0,0,1-14-3.53,24.3,24.3,0,0,1-9.4-9.87,34.28,34.28,0,0,1,0-29.56,24.45,24.45,0,0,1,9.4-9.83,29.84,29.84,0,0,1,28.12,0,24.47,24.47,0,0,1,9.36,9.87,31.32,31.32,0,0,1,3.35,14.83,31,31,0,0,1-3.35,14.73,24.42,24.42,0,0,1-9.36,9.83A27.33,27.33,0,0,1,1186.72,749Zm0-11.88a13,13,0,0,0,7.27-2,13.34,13.34,0,0,0,4.83-5.69,21.92,21.92,0,0,0,0-17.07,13.66,13.66,0,0,0-4.83-5.72,12.81,12.81,0,0,0-7.27-2.05,13.11,13.11,0,0,0-7.24,2,13.46,13.46,0,0,0-4.86,5.69,22.09,22.09,0,0,0,0,17.14,13.4,13.4,0,0,0,4.86,5.69A13.12,13.12,0,0,0,1186.72,737.08Z"/><path class="cls-2" d="M1244.62,749a27.43,27.43,0,0,1-14-3.53,24.28,24.28,0,0,1-9.39-9.87,34.28,34.28,0,0,1,0-29.56,24.43,24.43,0,0,1,9.39-9.83,29.84,29.84,0,0,1,28.12,0,24.47,24.47,0,0,1,9.36,9.87,31.2,31.2,0,0,1,3.35,14.83,30.85,30.85,0,0,1-3.35,14.73,24.42,24.42,0,0,1-9.36,9.83A27.32,27.32,0,0,1,1244.62,749Zm0-11.88a13.08,13.08,0,0,0,7.27-2,13.39,13.39,0,0,0,4.82-5.69,21.92,21.92,0,0,0,0-17.07,13.72,13.72,0,0,0-4.82-5.72,12.86,12.86,0,0,0-7.27-2.05,13.11,13.11,0,0,0-7.24,2,13.32,13.32,0,0,0-4.86,5.69,22.09,22.09,0,0,0,0,17.14,13.26,13.26,0,0,0,4.86,5.69A13.12,13.12,0,0,0,1244.62,737.08Z"/><path class="cls-2" d="M1298.26,693.8a27.21,27.21,0,0,1,13.75,3.38,23.69,23.69,0,0,1,9.19,9.43,31.94,31.94,0,0,1-.11,28.38,23.68,23.68,0,0,1-9.51,9.47,29.43,29.43,0,0,1-14.33,3.34h-19.37v-54Zm-1.3,42.48a14.63,14.63,0,0,0,7.64-1.94,13.61,13.61,0,0,0,5.08-5.44,17.21,17.21,0,0,0,1.83-8.1,17.42,17.42,0,0,0-1.8-8.14,13.4,13.4,0,0,0-5-5.4,14.62,14.62,0,0,0-7.63-1.94h-6.91v31Z"/><path class="cls-2" d="M936.85,736.28h2.74v11.53h-4.25a30.4,30.4,0,0,1-5.62-.4,5,5,0,0,1-3.06-1.8,20.67,20.67,0,0,1-2.41-4.36l-4.18-9.57a6.61,6.61,0,0,0-1.22-2.17,2.89,2.89,0,0,0-1.8-.43h-8.14v18.73H896.67v-54h23.69a22.38,22.38,0,0,1,9.51,1.87,14.56,14.56,0,0,1,6.3,5.44,15.55,15.55,0,0,1,2.26,8.53,14.7,14.7,0,0,1-10.36,14.69v.72a4.78,4.78,0,0,1,2.41,1.77,21,21,0,0,1,2,3.78l1.8,4.17a3,3,0,0,0,.86,1.23A3.54,3.54,0,0,0,936.85,736.28Zm-17.64-31h-10.3v12.24h10.3a6.79,6.79,0,0,0,4.79-1.69,6.28,6.28,0,0,0,0-8.86A6.83,6.83,0,0,0,919.21,705.32Z"/><path class="cls-2" d="M666.85,792.32a7.13,7.13,0,0,1,5.44,7.19,7.58,7.58,0,0,1-1.16,4.18,7.93,7.93,0,0,1-3.22,2.86,10.8,10.8,0,0,1-4.88,1H649.76V777.5h12a11.72,11.72,0,0,1,5,1A7.78,7.78,0,0,1,670,781.2a7.18,7.18,0,0,1,1.17,4.1,7,7,0,0,1-1.17,4,6.89,6.89,0,0,1-3.17,2.53Zm-5.72-11h-6.7v9.13h7.1a5.13,5.13,0,0,0,3.6-1.24,4.57,4.57,0,0,0-.13-6.61A5.67,5.67,0,0,0,661.13,781.32Zm.89,22.45a5.83,5.83,0,0,0,4-1.34,4.5,4.5,0,0,0,1.5-3.53,4.44,4.44,0,0,0-1.54-3.53,6,6,0,0,0-4.1-1.35h-7.47v9.75Z"/><path class="cls-2" d="M692.87,808.11a12.29,12.29,0,0,1-6.17-1.5,10.49,10.49,0,0,1-4.1-4.2,13.12,13.12,0,0,1-1.46-6.31V777.5h4.63v18.6a7.87,7.87,0,0,0,2,5.56,7.33,7.33,0,0,0,10.29,0,8,8,0,0,0,1.93-5.56V777.5h4.62v18.6a13.23,13.23,0,0,1-1.44,6.31,10.31,10.31,0,0,1-4.08,4.2A12.23,12.23,0,0,1,692.87,808.11Z"/><path class="cls-2" d="M727.83,781.85h-5V803.2h5v4.38H713.09V803.2h5V781.85h-5V777.5h14.74Z"/><path class="cls-2" d="M741.38,803.2h12.91v4.38H736.71V777.5h4.67Z"/><path class="cls-2" d="M773.49,777.5a15.16,15.16,0,0,1,7.68,1.89,13.2,13.2,0,0,1,5.11,5.26,16.22,16.22,0,0,1,1.83,7.87,16,16,0,0,1-1.87,7.9A13.24,13.24,0,0,1,781,805.7a15.91,15.91,0,0,1-7.87,1.88h-10V777.5Zm-.44,25.7a10.33,10.33,0,0,0,5.32-1.34,9.26,9.26,0,0,0,3.53-3.73,13.19,13.19,0,0,0,0-11.21,9.22,9.22,0,0,0-3.51-3.73,10.13,10.13,0,0,0-5.3-1.34h-5.24V803.2Z"/><path class="cls-2" d="M826.11,797.62a5.07,5.07,0,0,1-5-5,5,5,0,0,1,1.48-3.58,4.83,4.83,0,0,1,3.56-1.52,5.21,5.21,0,0,1,5.11,5.1,4.79,4.79,0,0,1-1.53,3.56A4.94,4.94,0,0,1,826.11,797.62Z"/><path class="cls-2" d="M868.84,803.2h12.91v4.38H864.17V777.5h4.67Z"/><path class="cls-2" d="M895.31,803.2H910.9v4.38H890.64V777.5h19.69v4.35h-15v8.6H908.1v4.14H895.31Z"/><path class="cls-2" d="M940.41,807.58l-2.35-6.77H924.82l-2.39,6.77h-4.87l11.12-30.08h5.52l11.12,30.08Zm-14.13-10.92H936.6l-4.84-13.84h-.61Z"/><path class="cls-2" d="M963.72,777.5a15.12,15.12,0,0,1,7.67,1.89,13.2,13.2,0,0,1,5.11,5.26,16.22,16.22,0,0,1,1.83,7.87,16,16,0,0,1-1.87,7.9,13.28,13.28,0,0,1-5.23,5.28,16,16,0,0,1-7.88,1.88h-10V777.5Zm-.45,25.7a10.33,10.33,0,0,0,5.32-1.34,9.26,9.26,0,0,0,3.53-3.73,13.1,13.1,0,0,0,0-11.21,9.22,9.22,0,0,0-3.51-3.73,10.11,10.11,0,0,0-5.3-1.34h-5.24V803.2Z"/><path class="cls-2" d="M1066.49,777.5a10.31,10.31,0,0,1,5.2,1.28,8.91,8.91,0,0,1,3.47,3.55,12.2,12.2,0,0,1,0,10.72,8.82,8.82,0,0,1-3.47,3.59,10.2,10.2,0,0,1-5.2,1.28h-7.42v9.66h-4.68V777.5Zm-.52,16a5.29,5.29,0,0,0,4-1.61,6.64,6.64,0,0,0,0-8.48,5.29,5.29,0,0,0-4-1.6h-6.9v11.69Z"/><path class="cls-2" d="M1107.05,803.2h1v4.38h-1.54a10.55,10.55,0,0,1-2.39-.2,2.32,2.32,0,0,1-1.36-.85,8.32,8.32,0,0,1-1-1.91l-2.52-6.94a2.68,2.68,0,0,0-.71-1.18,2.09,2.09,0,0,0-1.16-.24h-7.26v11.32h-4.67V777.5h11.89a12.41,12.41,0,0,1,5.32,1.06,8.14,8.14,0,0,1,3.54,3,8.62,8.62,0,0,1,1.25,4.69,8.08,8.08,0,0,1-1.48,4.91,8.38,8.38,0,0,1-4,3v.48a2.38,2.38,0,0,1,1.18.86,7.94,7.94,0,0,1,.89,1.7l1.67,5.08a1.85,1.85,0,0,0,.48.75A1.62,1.62,0,0,0,1107.05,803.2Zm-10.35-21.35h-6.58v10h7.1a5.5,5.5,0,0,0,3.88-1.36,4.58,4.58,0,0,0,1.48-3.55,4.66,4.66,0,0,0-1.62-3.71A6.29,6.29,0,0,0,1096.7,781.85Z"/><path class="cls-2" d="M1131.16,808.15a14.75,14.75,0,0,1-7.67-1.95,13.43,13.43,0,0,1-5.12-5.46,19.47,19.47,0,0,1,0-16.44,13.43,13.43,0,0,1,5.12-5.46,16.06,16.06,0,0,1,15.34,0,13.35,13.35,0,0,1,5.12,5.48,17.68,17.68,0,0,1,1.83,8.24,17.43,17.43,0,0,1-1.83,8.18,13.36,13.36,0,0,1-5.12,5.46A14.75,14.75,0,0,1,1131.16,808.15Zm0-4.46a9.24,9.24,0,0,0,5.1-1.4,9.64,9.64,0,0,0,3.39-3.9,14.72,14.72,0,0,0,0-11.69,9.51,9.51,0,0,0-3.39-3.9,9.38,9.38,0,0,0-13.58,3.86,14.66,14.66,0,0,0,0,11.71,9.33,9.33,0,0,0,3.41,3.92A9.23,9.23,0,0,0,1131.16,803.69Z"/><path class="cls-2" d="M1175.69,777.5v4.35H1166v25.73h-4.67V781.85h-9.7V777.5Z"/><path class="cls-2" d="M1188.93,803.2h15.59v4.38h-20.26V777.5H1204v4.35h-15v8.6h12.79v4.14h-12.79Z"/><path class="cls-2" d="M1226,808.15a15,15,0,0,1-7.75-1.95,13.44,13.44,0,0,1-5.18-5.46,19.28,19.28,0,0,1,0-16.44,13.44,13.44,0,0,1,5.18-5.46,15,15,0,0,1,7.75-2,14.86,14.86,0,0,1,6.7,1.47,12.89,12.89,0,0,1,4.85,4.07,13.19,13.19,0,0,1,2.34,6.16h-5.08a8.85,8.85,0,0,0-4.85-6.3,10,10,0,0,0-9.19.49,9.16,9.16,0,0,0-3.41,3.88,14.66,14.66,0,0,0,0,11.71,9.06,9.06,0,0,0,8.52,5.32,9.18,9.18,0,0,0,4.08-.9,8.77,8.77,0,0,0,3.13-2.51,9,9,0,0,0,1.72-3.78h5.08a13.08,13.08,0,0,1-2.34,6.11,12.83,12.83,0,0,1-4.85,4.08A14.86,14.86,0,0,1,1226,808.15Z"/><path class="cls-2" d="M1270.24,777.5v4.35h-9.7v25.73h-4.67V781.85h-9.7V777.5Z"/><path class="cls-2" d="M1016.33,797.62a5.07,5.07,0,0,1-5-5,5,5,0,0,1,1.48-3.58,4.83,4.83,0,0,1,3.56-1.52,5.19,5.19,0,0,1,5.11,5.1,4.82,4.82,0,0,1-1.52,3.56A5,5,0,0,1,1016.33,797.62Z"/><path class="cls-2" d="M973.39,351.72V600.25a158.75,158.75,0,0,0,22.62-7.9l1.07-.46a144.68,144.68,0,0,0,84.85-131.45V434.69h-54.69v30h24.59a114.58,114.58,0,0,1-48.42,89.11V359.92L1082,381.41V350.29l-78.54-21.49h0l-30-8.23v30.37l-.2.73.2.05Z"/><path class="cls-2" d="M958.37,320.57l-7.78,2.13-22.24,6.08-78.57,21.49V460.44a144.46,144.46,0,0,0,30,88V464.71h48.56V588.89c1.8.93,3.6,1.8,5.43,2.65A143.07,143.07,0,0,0,956,599.6l2.38.65V351.72l.15-.05-.15-.55Zm-30,114.12H879.79V373.18l48.56-13.26Z"/><path class="cls-2" d="M965.85,271.85l-161.1,44V460.44A189.13,189.13,0,0,0,944.14,643.05l21.71,6,21.69-6A189.73,189.73,0,0,0,1127,460.44V315.93ZM1097,460.44A159.63,159.63,0,0,1,979.61,614.1l-13.76,3.79-13.79-3.8A159.4,159.4,0,0,1,834.77,460.44V338.81L965.85,303,1097,338.84Z"/></svg>