<svg id="Layer_1" data-name="Layer 1" xmlns="http://www.w3.org/2000/svg" viewBox="0 0 1920 1080"><defs><style>.cls-1{fill:#fff;}</style></defs><rect width="1920" height="1080"/><path class="cls-1" d="M630.37,720.86l-2.63-8h-18.3l-2.63,8H595.53l16.92-47h12.28l16.93,47Zm-17.86-17.42h12.16l-5.77-17.68h-.62Z"/><path class="cls-1" d="M681.7,673.86h14.36v47H685.4V691.72h-.63l-9.08,29.14H666.1l-8.9-29.14h-.63v29.14H645.92v-47h14.35L670.67,707h.63Z"/><path class="cls-1" d="M725,721.86a23.77,23.77,0,0,1-12.22-3.07,21.14,21.14,0,0,1-8.18-8.58,29.89,29.89,0,0,1,0-25.73,21.13,21.13,0,0,1,8.18-8.55,25.84,25.84,0,0,1,24.47,0,21.2,21.2,0,0,1,8.15,8.58,27.29,27.29,0,0,1,2.91,12.91,27,27,0,0,1-2.91,12.82,21.18,21.18,0,0,1-8.15,8.55A23.73,23.73,0,0,1,725,721.86Zm0-10.34a11.35,11.35,0,0,0,6.33-1.75,11.63,11.63,0,0,0,4.2-4.95,19.15,19.15,0,0,0,0-14.86,11.84,11.84,0,0,0-4.2-5,11.22,11.22,0,0,0-6.33-1.79,11.4,11.4,0,0,0-6.3,1.76,11.56,11.56,0,0,0-4.23,4.95,19.3,19.3,0,0,0,0,14.92,11.56,11.56,0,0,0,4.23,4.95A11.39,11.39,0,0,0,725,711.52Z"/><path class="cls-1" d="M772.08,721.86a22.92,22.92,0,0,1-9.78-2,17.94,17.94,0,0,1-7-5.74,19.43,19.43,0,0,1-3.48-8.8h11a8.73,8.73,0,0,0,2.88,5.33,9.24,9.24,0,0,0,6.39,2.13,9.1,9.1,0,0,0,5.33-1.48,4.65,4.65,0,0,0,2.13-4c0-2.59-1.56-4.11-4.7-4.57l-8.27-1.19q-6.59-.94-10.22-4.42a12.13,12.13,0,0,1-3.63-9.18,14,14,0,0,1,2.25-7.9,15.1,15.1,0,0,1,6.24-5.27,21.45,21.45,0,0,1,9.25-1.88,22,22,0,0,1,9.46,1.95,17,17,0,0,1,6.7,5.48,17.8,17.8,0,0,1,3.2,8.31h-11a7.63,7.63,0,0,0-2.66-4.86,8.43,8.43,0,0,0-5.55-1.79,8.86,8.86,0,0,0-4.92,1.32,4.28,4.28,0,0,0-2,3.82q0,3.82,4.88,4.51l8.28,1.19q6.57.94,10.12,4.49a12.34,12.34,0,0,1,3.54,9.11,14.26,14.26,0,0,1-2.35,8.15A15.34,15.34,0,0,1,781.6,720,22.35,22.35,0,0,1,772.08,721.86Z"/><path class="cls-1" d="M828.8,695h21.62v25.88h-6.77l-2-5.45H841a13.72,13.72,0,0,1-5.64,4.76,19.4,19.4,0,0,1-8.4,1.69,20,20,0,0,1-18.8-11.65,28.9,28.9,0,0,1-2.7-12.85,27.34,27.34,0,0,1,2.88-12.88,21.17,21.17,0,0,1,8.06-8.55,23.14,23.14,0,0,1,12.06-3.08,24.49,24.49,0,0,1,10.34,2.1,19.18,19.18,0,0,1,7.46,5.93,18.22,18.22,0,0,1,3.51,8.9H838.2a8,8,0,0,0-3.11-4.67,10,10,0,0,0-6.29-1.92,11.23,11.23,0,0,0-6.3,1.79,11.8,11.8,0,0,0-4.23,4.95,17.05,17.05,0,0,0-1.51,7.43,16.83,16.83,0,0,0,1.57,7.46,11.7,11.7,0,0,0,4.42,4.95,12.34,12.34,0,0,0,6.61,1.75,11.08,11.08,0,0,0,7-2.16,8.18,8.18,0,0,0,3.23-5.61H828.8Z"/><path class="cls-1" d="M911.9,710.83h21.75v10h-32.4v-47H933v10H911.9v8.78h18v9.4h-18Z"/><path class="cls-1" d="M949.94,710.83h21.75v10h-32.4v-47h31.77v10H949.94v8.78h18v9.4h-18Z"/><path class="cls-1" d="M1006.16,673.86h10.65v47H1004l-15.36-30H988v30H977.33v-47h12.85l15.35,30h.63Z"/><path class="cls-1" d="M1075,673.86h11.9l-12,47h-13.29l-7.33-32.71h-.62l-7.34,32.71h-13.28l-12-47H1033l7.46,32.65h.63l5.89-32.65h14l5.89,32.65h.63Z"/><path class="cls-1" d="M1110.07,721.86a23.77,23.77,0,0,1-12.22-3.07,21.14,21.14,0,0,1-8.18-8.58,29.89,29.89,0,0,1,0-25.73,21.13,21.13,0,0,1,8.18-8.55,25.84,25.84,0,0,1,24.47,0,21.2,21.2,0,0,1,8.15,8.58,27.29,27.29,0,0,1,2.91,12.91,27,27,0,0,1-2.91,12.82,21.18,21.18,0,0,1-8.15,8.55A23.73,23.73,0,0,1,1110.07,721.86Zm0-10.34a11.35,11.35,0,0,0,6.33-1.75,11.63,11.63,0,0,0,4.2-4.95,19.15,19.15,0,0,0,0-14.86,11.84,11.84,0,0,0-4.2-5,11.22,11.22,0,0,0-6.33-1.79,11.4,11.4,0,0,0-6.3,1.76,11.7,11.7,0,0,0-4.23,4.95,19.3,19.3,0,0,0,0,14.92,11.7,11.7,0,0,0,4.23,4.95A11.39,11.39,0,0,0,1110.07,711.52Z"/><path class="cls-1" d="M1160.46,721.86a23.77,23.77,0,0,1-12.22-3.07,21.14,21.14,0,0,1-8.18-8.58,29.89,29.89,0,0,1,0-25.73,21.13,21.13,0,0,1,8.18-8.55,25.84,25.84,0,0,1,24.47,0,21.2,21.2,0,0,1,8.15,8.58,27.29,27.29,0,0,1,2.91,12.91,27,27,0,0,1-2.91,12.82,21.18,21.18,0,0,1-8.15,8.55A23.73,23.73,0,0,1,1160.46,721.86Zm0-10.34a11.35,11.35,0,0,0,6.33-1.75,11.63,11.63,0,0,0,4.2-4.95,19.15,19.15,0,0,0,0-14.86,11.84,11.84,0,0,0-4.2-5,11.22,11.22,0,0,0-6.33-1.79,11.4,11.4,0,0,0-6.3,1.76,11.56,11.56,0,0,0-4.23,4.95,19.3,19.3,0,0,0,0,14.92,11.56,11.56,0,0,0,4.23,4.95A11.39,11.39,0,0,0,1160.46,711.52Z"/><path class="cls-1" d="M1207.15,673.86a23.68,23.68,0,0,1,12,2.94,20.56,20.56,0,0,1,8,8.21,27.79,27.79,0,0,1-.09,24.7,20.59,20.59,0,0,1-8.28,8.24,25.61,25.61,0,0,1-12.47,2.91h-16.86v-47Zm-1.13,37a12.69,12.69,0,0,0,6.65-1.69,11.71,11.71,0,0,0,4.41-4.73,16.54,16.54,0,0,0,0-14.13,11.49,11.49,0,0,0-4.38-4.7,12.67,12.67,0,0,0-6.65-1.7h-6v27Z"/><path class="cls-1" d="M1280.22,673.86v28.7q0,9.29-4.66,14.29t-13.38,5q-8.72,0-13.42-5t-4.7-14.29h10.34q0,4.46,2,6.86a7.75,7.75,0,0,0,11.25,0q1.93-2.4,1.94-6.86V683.88H1252v-10Z"/><path class="cls-1" d="M1322.09,710.83h2.38v10h-3.69a26.26,26.26,0,0,1-4.89-.34,4.39,4.39,0,0,1-2.67-1.57,18.08,18.08,0,0,1-2.1-3.79l-3.63-8.34a5.55,5.55,0,0,0-1.07-1.88,2.44,2.44,0,0,0-1.56-.37h-7.09v16.29h-10.65v-47h20.62a19.43,19.43,0,0,1,8.27,1.63,12.63,12.63,0,0,1,5.49,4.73,13.58,13.58,0,0,1,2,7.42,12.78,12.78,0,0,1-9,12.79v.63a4.09,4.09,0,0,1,2.09,1.53,18,18,0,0,1,1.73,3.29l1.57,3.64a2.52,2.52,0,0,0,.75,1.06A3,3,0,0,0,1322.09,710.83Zm-15.35-27h-9v10.66h9a5.93,5.93,0,0,0,4.17-1.47,5.47,5.47,0,0,0,0-7.71A5.94,5.94,0,0,0,1306.74,683.88Z"/><path class="cls-1" d="M892.6,710.84H895v10h-3.7a26.26,26.26,0,0,1-4.89-.34,4.37,4.37,0,0,1-2.66-1.57,17.64,17.64,0,0,1-2.1-3.79L878,706.82a5.73,5.73,0,0,0-1.07-1.88,2.47,2.47,0,0,0-1.57-.37h-7.08v16.29H857.62v-47h20.63a19.43,19.43,0,0,1,8.27,1.63,12.54,12.54,0,0,1,5.48,4.73,13.51,13.51,0,0,1,2,7.43,12.78,12.78,0,0,1-9,12.78v.63a4.07,4.07,0,0,1,2.1,1.53,18.44,18.44,0,0,1,1.72,3.29l1.57,3.64a2.64,2.64,0,0,0,.75,1.07A3.11,3.11,0,0,0,892.6,710.84Zm-15.36-27h-9v10.65h9a5.93,5.93,0,0,0,4.17-1.47,5.44,5.44,0,0,0,0-7.71A5.93,5.93,0,0,0,877.24,683.89Z"/><path class="cls-1" d="M704.86,759.61a6.2,6.2,0,0,1,4.73,6.25,6.58,6.58,0,0,1-1,3.64,6.85,6.85,0,0,1-2.8,2.49,9.39,9.39,0,0,1-4.24.9H690V746.71h10.46a10.11,10.11,0,0,1,4.31.85,6.65,6.65,0,0,1,2.86,2.37,6.16,6.16,0,0,1,1,3.56,6,6,0,0,1-3.78,5.73Zm-5-9.58h-5.83v8h6.18a4.48,4.48,0,0,0,3.13-1.08,4,4,0,0,0-.11-5.76A5,5,0,0,0,699.88,750Zm.77,19.54a5.05,5.05,0,0,0,3.5-1.17,3.91,3.91,0,0,0,1.31-3.07,3.87,3.87,0,0,0-1.34-3.07,5.26,5.26,0,0,0-3.57-1.17h-6.5v8.48Z"/><path class="cls-1" d="M727.51,773.35a10.75,10.75,0,0,1-5.38-1.31,9.13,9.13,0,0,1-3.56-3.65,11.37,11.37,0,0,1-1.28-5.5V746.71h4v16.18a6.85,6.85,0,0,0,1.7,4.84,6.37,6.37,0,0,0,9,0,6.93,6.93,0,0,0,1.67-4.84V746.71h4v16.18a11.59,11.59,0,0,1-1.25,5.5,9,9,0,0,1-3.55,3.65A10.68,10.68,0,0,1,727.51,773.35Z"/><path class="cls-1" d="M757.93,750.49h-4.38v18.59h4.38v3.81H745.1v-3.81h4.38V750.49H745.1v-3.78h12.83Z"/><path class="cls-1" d="M769.73,769.08H781v3.81h-15.3V746.71h4.07Z"/><path class="cls-1" d="M797.68,746.71a13.19,13.19,0,0,1,6.67,1.64,11.47,11.47,0,0,1,4.45,4.58,15.46,15.46,0,0,1,0,13.72,11.53,11.53,0,0,1-4.56,4.6,13.83,13.83,0,0,1-6.85,1.64H788.7V746.71Zm-.39,22.37a8.91,8.91,0,0,0,4.62-1.17,8,8,0,0,0,3.08-3.25,11.45,11.45,0,0,0,0-9.75,8,8,0,0,0-3.06-3.25,8.8,8.8,0,0,0-4.61-1.17h-4.56v18.59Z"/><path class="cls-1" d="M843.47,764.22a4.42,4.42,0,0,1-4.39-4.39,4.32,4.32,0,0,1,1.29-3.12,4.22,4.22,0,0,1,3.1-1.33,4.53,4.53,0,0,1,4.44,4.45,4.17,4.17,0,0,1-1.32,3.09A4.29,4.29,0,0,1,843.47,764.22Z"/><path class="cls-1" d="M880.66,769.08H891.9v3.81H876.6V746.71h4.06Z"/><path class="cls-1" d="M903.7,769.08h13.57v3.81H899.63V746.71h17.14v3.78H903.7V758h11.13v3.6H903.7Z"/><path class="cls-1" d="M943,772.89,940.9,767H929.38l-2.08,5.9h-4.24l9.68-26.18h4.81l9.68,26.18Zm-12.29-9.5h9l-4.2-12h-.54Z"/><path class="cls-1" d="M963.23,746.71a13.23,13.23,0,0,1,6.68,1.64,11.47,11.47,0,0,1,4.45,4.58,15.46,15.46,0,0,1,0,13.72,11.6,11.6,0,0,1-4.56,4.6,13.86,13.86,0,0,1-6.85,1.64h-8.66V746.71Zm-.38,22.37a8.91,8.91,0,0,0,4.62-1.17,8,8,0,0,0,3.08-3.25,11.45,11.45,0,0,0,0-9.75,8,8,0,0,0-3.06-3.25,8.82,8.82,0,0,0-4.61-1.17h-4.56v18.59Z"/><path class="cls-1" d="M1052.69,746.71a9,9,0,0,1,4.52,1.11,7.87,7.87,0,0,1,3,3.09,9.62,9.62,0,0,1,1.08,4.67,9.71,9.71,0,0,1-1.08,4.66,7.78,7.78,0,0,1-3,3.13,9,9,0,0,1-4.52,1.11h-6.47v8.41h-4.06V746.71Zm-.46,14a4.61,4.61,0,0,0,3.51-1.4,5.78,5.78,0,0,0,0-7.38,4.61,4.61,0,0,0-3.51-1.4h-6v10.18Z"/><path class="cls-1" d="M1088,769.08h.92v3.81h-1.34a9.38,9.38,0,0,1-2.09-.18,2,2,0,0,1-1.18-.74,7.21,7.21,0,0,1-.9-1.66l-2.19-6a2.31,2.31,0,0,0-.62-1,1.74,1.74,0,0,0-1-.22h-6.32v9.86h-4.07V746.71h10.36a11,11,0,0,1,4.63.92,7.07,7.07,0,0,1,3.07,2.63,7.41,7.41,0,0,1,1.1,4.08,7.14,7.14,0,0,1-1.29,4.28,7.42,7.42,0,0,1-3.52,2.58v.42a2.13,2.13,0,0,1,1,.74,7.76,7.76,0,0,1,.77,1.49l1.45,4.41a1.7,1.7,0,0,0,.42.66A1.44,1.44,0,0,0,1088,769.08Zm-9-18.59h-5.72v8.73h6.18a4.81,4.81,0,0,0,3.38-1.19,4.37,4.37,0,0,0-.13-6.32A5.49,5.49,0,0,0,1079,750.49Z"/><path class="cls-1" d="M1109,773.39a12.88,12.88,0,0,1-6.68-1.7,11.66,11.66,0,0,1-4.45-4.75,16.89,16.89,0,0,1,0-14.31,11.6,11.6,0,0,1,4.45-4.75,14,14,0,0,1,13.36,0,11.59,11.59,0,0,1,4.45,4.77,16.85,16.85,0,0,1,0,14.29,11.66,11.66,0,0,1-4.45,4.75A12.88,12.88,0,0,1,1109,773.39Zm0-3.89a8,8,0,0,0,4.43-1.22,8.14,8.14,0,0,0,2.95-3.39,12.75,12.75,0,0,0,0-10.18,8.14,8.14,0,0,0-2.95-3.39,8,8,0,0,0-4.43-1.22,8.16,8.16,0,0,0-4.42,1.2,8,8,0,0,0-3,3.38,12.67,12.67,0,0,0,0,10.19,7.87,7.87,0,0,0,7.38,4.63Z"/><path class="cls-1" d="M1147.73,746.71v3.78h-8.45v22.4h-4.06v-22.4h-8.44v-3.78Z"/><path class="cls-1" d="M1159.25,769.08h13.57v3.81h-17.64V746.71h17.14v3.78h-13.07V758h11.13v3.6h-11.13Z"/><path class="cls-1" d="M1191.47,773.39a13.12,13.12,0,0,1-6.75-1.7,11.71,11.71,0,0,1-4.5-4.75,16.7,16.7,0,0,1,0-14.31,11.65,11.65,0,0,1,4.5-4.75,13.12,13.12,0,0,1,6.75-1.7,13,13,0,0,1,5.83,1.27,11.16,11.16,0,0,1,6.25,8.91h-4.41a7.81,7.81,0,0,0-1.5-3.29,7.71,7.71,0,0,0-2.72-2.19,8.06,8.06,0,0,0-3.55-.78,8.22,8.22,0,0,0-4.46,1.2,8,8,0,0,0-3,3.38,12.67,12.67,0,0,0,0,10.19,8.31,8.31,0,0,0,11,3.85,7.71,7.71,0,0,0,2.72-2.19,7.83,7.83,0,0,0,1.5-3.28h4.41a11.25,11.25,0,0,1-2,5.31,11.12,11.12,0,0,1-4.22,3.55A13,13,0,0,1,1191.47,773.39Z"/><path class="cls-1" d="M1230,746.71v3.78h-8.45v22.4h-4.06v-22.4h-8.45v-3.78Z"/><path class="cls-1" d="M1009,764.22a4.42,4.42,0,0,1-4.39-4.39,4.32,4.32,0,0,1,1.29-3.12,4.22,4.22,0,0,1,3.1-1.33,4.53,4.53,0,0,1,4.44,4.45,4.17,4.17,0,0,1-1.32,3.09A4.29,4.29,0,0,1,1009,764.22Z"/><path class="cls-1" d="M966.55,376.13V592.44a139.77,139.77,0,0,0,19.69-6.87l.92-.41A125.92,125.92,0,0,0,1061,470.75V448.34h-47.6v26.13h21.39A99.68,99.68,0,0,1,992.67,552V383.27L1061,402V374.89l-68.36-18.7h0L966.55,349v26.43l-.18.63.18.05Z"/><path class="cls-1" d="M953.48,349l-6.78,1.85-19.35,5.29L859,374.87v95.88a125.65,125.65,0,0,0,26.13,76.62v-72.9h42.26V582.55c1.57.81,3.13,1.57,4.72,2.31a124.82,124.82,0,0,0,19.34,7l2.07.57V376.13l.13-.05-.13-.47Zm-26.13,99.32H885.09V394.81l42.26-11.54Z"/><path class="cls-1" d="M960,306.61,819.77,345v125.8A164.55,164.55,0,0,0,941.09,629.69l18.9,5.2,18.87-5.2a165.11,165.11,0,0,0,121.37-158.93V345ZM1074.1,470.76A138.94,138.94,0,0,1,972,604.5l-12,3.29-12-3.3A138.72,138.72,0,0,1,845.9,470.76V364.9L960,333.7l114.11,31.22Z"/></svg>