<svg id="Layer_1" data-name="Layer 1" xmlns="http://www.w3.org/2000/svg" viewBox="0 0 1080 1080"><defs><style>.cls-1{fill:#fff;}.cls-2{fill:#231f20;}</style></defs><rect class="cls-1" width="1080" height="1080"/><path d="M287.14,702l-2.36-7.18H268.4L266,702h-10.1l15.15-42.09h11L297.24,702Zm-16-15.6H282l-5.16-15.83h-.56Z"/><path d="M333.1,659.87H346V702h-9.54v-26.1h-.57L327.72,702h-8.59l-8-26.1h-.56V702h-9.54V659.87h12.85l9.32,29.69h.56Z"/><path d="M371.89,702.86a21.38,21.38,0,0,1-10.95-2.75,19,19,0,0,1-7.32-7.69,26.73,26.73,0,0,1,0-23,19,19,0,0,1,7.32-7.66,23.22,23.22,0,0,1,21.92,0,19,19,0,0,1,7.29,7.69A24.4,24.4,0,0,1,392.76,681a24.13,24.13,0,0,1-2.61,11.48,19.14,19.14,0,0,1-7.29,7.66A21.32,21.32,0,0,1,371.89,702.86Zm0-9.26a10.19,10.19,0,0,0,5.66-1.57,10.5,10.5,0,0,0,3.77-4.44,15.49,15.49,0,0,0,1.34-6.62,15.68,15.68,0,0,0-1.34-6.68,10.68,10.68,0,0,0-3.77-4.46,10,10,0,0,0-5.66-1.6,10.19,10.19,0,0,0-5.65,1.57,10.48,10.48,0,0,0-3.78,4.43,17.2,17.2,0,0,0,0,13.36,10.45,10.45,0,0,0,3.78,4.44A10.27,10.27,0,0,0,371.89,693.6Z"/><path d="M414,702.86a20.52,20.52,0,0,1-8.75-1.8,16.14,16.14,0,0,1-6.32-5.13,17.6,17.6,0,0,1-3.11-7.89h9.82a7.84,7.84,0,0,0,2.58,4.77,9.43,9.43,0,0,0,10.5.59,4.18,4.18,0,0,0,1.91-3.62c0-2.32-1.41-3.68-4.21-4.1L409,684.62q-5.9-.84-9.15-4a10.87,10.87,0,0,1-3.26-8.22,12.51,12.51,0,0,1,2-7.07,13.52,13.52,0,0,1,5.59-4.72,19.22,19.22,0,0,1,8.28-1.68,19.69,19.69,0,0,1,8.47,1.74,15.41,15.41,0,0,1,6,4.91,16,16,0,0,1,2.86,7.44H420a6.83,6.83,0,0,0-2.39-4.35,7.5,7.5,0,0,0-5-1.6,7.94,7.94,0,0,0-4.41,1.18,3.82,3.82,0,0,0-1.82,3.42q0,3.42,4.37,4l7.41,1.07q5.89.84,9.07,4a11.06,11.06,0,0,1,3.17,8.16,12.75,12.75,0,0,1-2.11,7.3,13.7,13.7,0,0,1-5.81,4.86A20.14,20.14,0,0,1,414,702.86Z"/><path d="M464.83,678.78h19.36V702h-6.06l-1.8-4.88h-.56a12.34,12.34,0,0,1-5,4.26,17.4,17.4,0,0,1-7.52,1.52,17.93,17.93,0,0,1-16.84-10.44A25.9,25.9,0,0,1,444,680.91a24.45,24.45,0,0,1,2.58-11.53,19,19,0,0,1,7.21-7.66,20.8,20.8,0,0,1,10.8-2.75,22.06,22.06,0,0,1,9.27,1.88,17.13,17.13,0,0,1,6.67,5.3,16.41,16.41,0,0,1,3.15,8H473.24a7.21,7.21,0,0,0-2.78-4.18,8.92,8.92,0,0,0-5.63-1.71,10,10,0,0,0-5.65,1.6,10.59,10.59,0,0,0-3.78,4.43,15.33,15.33,0,0,0-1.35,6.65,15.07,15.07,0,0,0,1.4,6.68,10.56,10.56,0,0,0,4,4.44,11.14,11.14,0,0,0,5.92,1.57,9.92,9.92,0,0,0,6.26-1.94,7.3,7.3,0,0,0,2.89-5h-9.65Z"/><path d="M539.24,693h19.48v9h-29V659.87h28.46v9H539.24v7.85h16.11v8.42H539.24Z"/><path d="M573.31,693h19.47v9h-29V659.87h28.45v9H573.31v7.85h16.11v8.42H573.31Z"/><path d="M623.65,659.87h9.54V702h-11.5l-13.75-26.88h-.56V702h-9.55V659.87h11.51l13.75,26.88h.56Z"/><path d="M685.27,659.87h10.67L685.22,702h-11.9l-6.57-29.3h-.56L659.63,702h-11.9L637,659.87h10.66l6.68,29.24h.56l5.28-29.24h12.57L678,689.11h.56Z"/><path d="M716.7,702.86a21.34,21.34,0,0,1-10.94-2.75,19.06,19.06,0,0,1-7.33-7.69,26.73,26.73,0,0,1,0-23,19,19,0,0,1,7.33-7.66,23.22,23.22,0,0,1,21.92,0,19,19,0,0,1,7.29,7.69A24.4,24.4,0,0,1,737.58,681,24.13,24.13,0,0,1,735,692.45a19.14,19.14,0,0,1-7.29,7.66A21.36,21.36,0,0,1,716.7,702.86Zm0-9.26a10.22,10.22,0,0,0,5.67-1.57,10.48,10.48,0,0,0,3.76-4.44,15.35,15.35,0,0,0,1.35-6.62,15.53,15.53,0,0,0-1.35-6.68,10.66,10.66,0,0,0-3.76-4.46,10,10,0,0,0-5.67-1.6,10.18,10.18,0,0,0-5.64,1.57,10.5,10.5,0,0,0-3.79,4.43,17.32,17.32,0,0,0,0,13.36,10.47,10.47,0,0,0,3.79,4.44A10.26,10.26,0,0,0,716.7,693.6Z"/><path d="M761.83,702.86a21.35,21.35,0,0,1-11-2.75,19,19,0,0,1-7.32-7.69,26.73,26.73,0,0,1,0-23,19,19,0,0,1,7.32-7.66,23.22,23.22,0,0,1,21.92,0,19,19,0,0,1,7.29,7.69A24.4,24.4,0,0,1,782.7,681a24.13,24.13,0,0,1-2.61,11.48,19.14,19.14,0,0,1-7.29,7.66A21.35,21.35,0,0,1,761.83,702.86Zm0-9.26a10.21,10.21,0,0,0,5.66-1.57,10.41,10.41,0,0,0,3.76-4.44A15.35,15.35,0,0,0,772.6,681a15.53,15.53,0,0,0-1.35-6.68,10.59,10.59,0,0,0-3.76-4.46,10,10,0,0,0-5.66-1.6,10.19,10.19,0,0,0-5.65,1.57,10.41,10.41,0,0,0-3.78,4.43,17.2,17.2,0,0,0,0,13.36,10.38,10.38,0,0,0,3.78,4.44A10.27,10.27,0,0,0,761.83,693.6Z"/><path d="M803.64,659.87a21.13,21.13,0,0,1,10.71,2.64,18.29,18.29,0,0,1,7.16,7.35,24.89,24.89,0,0,1-.08,22.11,18.41,18.41,0,0,1-7.41,7.38A22.93,22.93,0,0,1,802.85,702h-15.1V659.87Zm-1,33.11a11.32,11.32,0,0,0,6-1.52,10.5,10.5,0,0,0,4-4.23,13.33,13.33,0,0,0,1.43-6.32,13.63,13.63,0,0,0-1.4-6.34,10.44,10.44,0,0,0-3.93-4.21,11.34,11.34,0,0,0-6-1.51h-5.39V693Z"/><path d="M522,693h2.13v9h-3.31a23.06,23.06,0,0,1-4.38-.31,3.89,3.89,0,0,1-2.38-1.4,15.79,15.79,0,0,1-1.88-3.4l-3.26-7.46a5.11,5.11,0,0,0-.95-1.69,2.24,2.24,0,0,0-1.41-.33h-6.34V702h-9.54V659.87h18.47a17.45,17.45,0,0,1,7.4,1.46,11.23,11.23,0,0,1,4.91,4.23,12.15,12.15,0,0,1,1.77,6.66,11.43,11.43,0,0,1-8.08,11.44v.57A3.68,3.68,0,0,1,517,685.6a16.42,16.42,0,0,1,1.54,2.95l1.41,3.25a2.31,2.31,0,0,0,.67,1A2.73,2.73,0,0,0,522,693Zm-13.75-24.13h-8v9.54h8a5.3,5.3,0,0,0,3.73-1.32,4.88,4.88,0,0,0,0-6.9A5.3,5.3,0,0,0,508.21,668.85Z"/><path d="M311.52,736.65a5.54,5.54,0,0,1,4.24,5.6,6,6,0,0,1-.9,3.26,6.12,6.12,0,0,1-2.51,2.23,8.41,8.41,0,0,1-3.8.81H298.2V725.11h9.37a9.26,9.26,0,0,1,3.86.75A6.07,6.07,0,0,1,314,728a5.57,5.57,0,0,1,.92,3.19,5.48,5.48,0,0,1-.92,3.15,5.37,5.37,0,0,1-2.47,2Zm-4.46-8.57h-5.22v7.12h5.54a4,4,0,0,0,2.8-1,3.54,3.54,0,0,0-.1-5.15A4.42,4.42,0,0,0,307.06,728.08Zm.7,17.5a4.51,4.51,0,0,0,3.13-1.05,3.5,3.5,0,0,0,1.17-2.75,3.46,3.46,0,0,0-1.2-2.75,4.69,4.69,0,0,0-3.2-1h-5.82v7.6Z"/><path d="M331.81,749a9.61,9.61,0,0,1-4.82-1.17,8.16,8.16,0,0,1-3.19-3.27,10.21,10.21,0,0,1-1.14-4.92V725.11h3.61V739.6a6.1,6.1,0,0,0,1.52,4.33,5.7,5.7,0,0,0,8,0,6.18,6.18,0,0,0,1.5-4.33V725.11h3.61V739.6a10.33,10.33,0,0,1-1.13,4.92,8.05,8.05,0,0,1-3.17,3.27A9.6,9.6,0,0,1,331.81,749Z"/><path d="M359.05,728.49h-3.93v16.64h3.93v3.42H347.56v-3.42h3.92V728.49h-3.92v-3.38h11.49Z"/><path d="M369.61,745.13h10.07v3.42H366V725.11h3.64Z"/><path d="M394.64,725.11a11.81,11.81,0,0,1,6,1.47,10.26,10.26,0,0,1,4,4.09,12.71,12.71,0,0,1,1.42,6.14,12.58,12.58,0,0,1-1.45,6.16,10.43,10.43,0,0,1-4.09,4.11,12.33,12.33,0,0,1-6.13,1.47H386.6V725.11Zm-.35,20a8,8,0,0,0,4.15-1,7.21,7.21,0,0,0,2.75-2.91,10.21,10.21,0,0,0,0-8.73,7.13,7.13,0,0,0-2.74-2.91,7.88,7.88,0,0,0-4.13-1h-4.08v16.64Z"/><path d="M435.65,740.78a4,4,0,0,1-3.93-3.93,3.83,3.83,0,0,1,1.16-2.79,3.73,3.73,0,0,1,2.77-1.19,4.07,4.07,0,0,1,4,4,3.73,3.73,0,0,1-1.19,2.77A3.83,3.83,0,0,1,435.65,740.78Z"/><path d="M469,745.13H479v3.42H465.31V725.11H469Z"/><path d="M489.58,745.13h12.15v3.42H485.94V725.11h15.35v3.38H489.58v6.71h10v3.23h-10Z"/><path d="M524.73,748.55l-1.83-5.28H512.58l-1.86,5.28h-3.8l8.67-23.44h4.3l8.67,23.44Zm-11-8.51h8L518,729.25h-.47Z"/><path d="M542.9,725.11a11.83,11.83,0,0,1,6,1.47,10.3,10.3,0,0,1,4,4.09,12.71,12.71,0,0,1,1.43,6.14,12.58,12.58,0,0,1-1.46,6.16,10.34,10.34,0,0,1-4.08,4.11,12.37,12.37,0,0,1-6.14,1.47h-7.75V725.11Zm-.35,20a8,8,0,0,0,4.14-1,7.3,7.3,0,0,0,2.76-2.91,10.21,10.21,0,0,0,0-8.73,7.19,7.19,0,0,0-2.74-2.91,7.9,7.9,0,0,0-4.13-1H538.5v16.64Z"/><path d="M623,725.11a8,8,0,0,1,4,1,7,7,0,0,1,2.7,2.77,9.47,9.47,0,0,1,0,8.35,6.81,6.81,0,0,1-2.7,2.8,8,8,0,0,1-4,1h-5.79v7.53h-3.64V725.11Zm-.41,12.49a4.11,4.11,0,0,0,3.15-1.25,5.22,5.22,0,0,0,0-6.61,4.15,4.15,0,0,0-3.15-1.25h-5.38v9.11Z"/><path d="M654.61,745.13h.82v3.42h-1.2a8.18,8.18,0,0,1-1.87-.16,1.79,1.79,0,0,1-1.06-.66,7,7,0,0,1-.81-1.49l-2-5.41a2.17,2.17,0,0,0-.55-.92,1.67,1.67,0,0,0-.9-.19h-5.67v8.83h-3.64V725.11H647a9.73,9.73,0,0,1,4.15.82,6.3,6.3,0,0,1,2.75,2.36,6.66,6.66,0,0,1,1,3.65,6.32,6.32,0,0,1-1.15,3.83,6.64,6.64,0,0,1-3.15,2.31v.38a1.86,1.86,0,0,1,.92.66,6.44,6.44,0,0,1,.69,1.33l1.3,4a1.44,1.44,0,0,0,.38.58A1.2,1.2,0,0,0,654.61,745.13Zm-8.07-16.64h-5.13v7.82H647a4.33,4.33,0,0,0,3-1.06,3.59,3.59,0,0,0,1.16-2.77,3.67,3.67,0,0,0-1.27-2.9A4.94,4.94,0,0,0,646.54,728.49Z"/><path d="M673.4,749a11.53,11.53,0,0,1-6-1.51,10.51,10.51,0,0,1-4-4.26,15.16,15.16,0,0,1,0-12.81,10.39,10.39,0,0,1,4-4.26,12.52,12.52,0,0,1,12,0,10.42,10.42,0,0,1,4,4.27,13.8,13.8,0,0,1,1.42,6.42,13.61,13.61,0,0,1-1.42,6.38,10.51,10.51,0,0,1-4,4.26A11.53,11.53,0,0,1,673.4,749Zm0-3.48a7.14,7.14,0,0,0,4-1.09,7.33,7.33,0,0,0,2.64-3,10.12,10.12,0,0,0,1-4.54,10.22,10.22,0,0,0-1-4.57,7.33,7.33,0,0,0-2.64-3,7.32,7.32,0,0,0-10.58,3,11.44,11.44,0,0,0,0,9.13,7.27,7.27,0,0,0,2.66,3A7.12,7.12,0,0,0,673.4,745.51Z"/><path d="M708.11,725.11v3.38h-7.56v20.06h-3.64V728.49h-7.56v-3.38Z"/><path d="M718.42,745.13h12.15v3.42H714.78V725.11h15.35v3.38H718.42v6.71h10v3.23h-10Z"/><path d="M747.28,749a11.75,11.75,0,0,1-6-1.51,10.57,10.57,0,0,1-4-4.26,15,15,0,0,1,0-12.81,10.44,10.44,0,0,1,4-4.26,12.65,12.65,0,0,1,11.26-.38,10.08,10.08,0,0,1,3.78,3.18,10.24,10.24,0,0,1,1.82,4.79h-4a7,7,0,0,0-1.35-2.94,6.83,6.83,0,0,0-2.44-2,7.27,7.27,0,0,0-9.82,3.4,11.44,11.44,0,0,0,0,9.13,7.47,7.47,0,0,0,9.82,3.45,6.94,6.94,0,0,0,2.44-2,7.06,7.06,0,0,0,1.35-3h4a10.25,10.25,0,0,1-1.82,4.77,10,10,0,0,1-3.78,3.17A11.64,11.64,0,0,1,747.28,749Z"/><path d="M781.8,725.11v3.38h-7.57v20.06H770.6V728.49H763v-3.38Z"/><path d="M583.9,740.78a4,4,0,0,1-3.93-3.93,3.87,3.87,0,0,1,1.16-2.79,3.76,3.76,0,0,1,2.77-1.19,4,4,0,0,1,4,4,3.72,3.72,0,0,1-1.18,2.77A3.84,3.84,0,0,1,583.9,740.78Z"/><path class="cls-2" d="M550.43,393.26V587a123.15,123.15,0,0,0,17.64-6.16l.83-.36A112.77,112.77,0,0,0,635,478V457.92H592.41v23.4h19.16a89.3,89.3,0,0,1-37.74,69.45V399.65L635,416.4V392.14L573.83,375.4h0L550.43,369v23.67l-.16.57.16,0Z"/><path class="cls-2" d="M538.73,369l-6.06,1.66-17.34,4.74-61.24,16.74V478a112.57,112.57,0,0,0,23.4,68.61V481.32h37.84v96.79c1.41.72,2.81,1.4,4.23,2.06a111.66,111.66,0,0,0,17.32,6.28l1.85.51V393.25l.12,0-.12-.43Zm-23.4,88.94H477.49V410l37.84-10.33Z"/><path class="cls-2" d="M544.56,331,419,365.34V478A147.36,147.36,0,0,0,527.64,620.31L544.56,625l16.91-4.65A147.86,147.86,0,0,0,670.14,478V365.36ZM646.75,478a124.43,124.43,0,0,1-91.47,119.76l-10.72,3-10.75-3A124.24,124.24,0,0,1,442.4,478V383.2l102.16-27.94,102.19,28Z"/></svg>