<svg id="Layer_1" data-name="Layer 1" xmlns="http://www.w3.org/2000/svg" viewBox="0 0 1080 1080"><defs><style>.cls-1{fill:#fff;}</style></defs><rect class="cls-1" width="1080" height="1080"/><path d="M548.75,413.5V702.69a183.78,183.78,0,0,0,26.33-9.18s.64-.27,1.24-.55a168.35,168.35,0,0,0,98.74-153V510H611.42V545H640a133.25,133.25,0,0,1-56.34,103.69V423l91.4,25V411.83l-91.4-25h0l-34.93-9.58v35.34l-.23.84.23.06Z"/><path d="M531.28,377.25l-9.06,2.48-25.87,7.07-91.44,25V540a168.06,168.06,0,0,0,34.93,102.44V545h56.51V689.48c2.09,1.08,4.19,2.09,6.31,3.08a167.06,167.06,0,0,0,25.85,9.38l2.77.75V413.49l.17-.06-.17-.64ZM496.35,510H439.84V438.47L496.35,423Z"/><path d="M540,320.55,352.52,371.82V540A220,220,0,0,0,514.72,752.5l25.26,7,25.24-7A220.75,220.75,0,0,0,727.48,540V371.85ZM692.55,540A185.75,185.75,0,0,1,556,718.81l-16,4.41-16.05-4.42A185.47,185.47,0,0,1,387.45,540V398.48L540,356.77l152.57,41.74Z"/></svg>