<svg id="Layer_1" data-name="Layer 1" xmlns="http://www.w3.org/2000/svg" viewBox="0 0 1080 1080"><defs><style>.cls-1{fill:#fff;}.cls-2{fill:#231f20;}</style></defs><rect class="cls-1" width="1080" height="1080"/><path d="M283.1,681,281,674.71H266.78l-2,6.25h-8.79l13.18-36.63h9.58L291.89,681Zm-13.93-13.58h9.48l-4.49-13.77h-.49Z"/><path d="M323.1,644.33h11.19V681H326V658.25h-.49L318.41,681h-7.47L304,658.25h-.49V681h-8.3V644.33h11.18l8.11,25.84H315Z"/><path d="M356.85,681.74a18.59,18.59,0,0,1-9.52-2.39,16.58,16.58,0,0,1-6.38-6.69,23.27,23.27,0,0,1,0-20,16.53,16.53,0,0,1,6.38-6.67,20.14,20.14,0,0,1,19.07,0,16.52,16.52,0,0,1,6.35,6.69A21.18,21.18,0,0,1,375,662.69a20.92,20.92,0,0,1-2.27,10,16.59,16.59,0,0,1-6.35,6.67A18.57,18.57,0,0,1,356.85,681.74Zm0-8.06a8.87,8.87,0,0,0,4.94-1.36,9.14,9.14,0,0,0,3.27-3.86,14.91,14.91,0,0,0,0-11.58,9.2,9.2,0,0,0-3.27-3.88,8.73,8.73,0,0,0-4.94-1.4,8.91,8.91,0,0,0-4.91,1.37,9.05,9.05,0,0,0-3.29,3.86,14.92,14.92,0,0,0,0,11.63,9.11,9.11,0,0,0,3.29,3.86A8.91,8.91,0,0,0,356.85,673.68Z"/><path d="M393.53,681.74a17.88,17.88,0,0,1-7.61-1.56,13.93,13.93,0,0,1-5.5-4.47,15.19,15.19,0,0,1-2.71-6.86h8.55A6.86,6.86,0,0,0,388.5,673a7.2,7.2,0,0,0,5,1.66,7.1,7.1,0,0,0,4.15-1.15,3.61,3.61,0,0,0,1.66-3.15q0-3-3.66-3.56l-6.45-.93a14,14,0,0,1-8-3.45,9.43,9.43,0,0,1-2.84-7.15,10.86,10.86,0,0,1,1.76-6.16A11.67,11.67,0,0,1,385,645a16.67,16.67,0,0,1,7.21-1.47,17.15,17.15,0,0,1,7.37,1.52,13.37,13.37,0,0,1,5.23,4.27,14,14,0,0,1,2.49,6.47h-8.55a6,6,0,0,0-2.07-3.78,6.58,6.58,0,0,0-4.33-1.39,7,7,0,0,0-3.83,1,3.34,3.34,0,0,0-1.59,3q0,3,3.81,3.52l6.45.93a13.52,13.52,0,0,1,7.89,3.49,9.62,9.62,0,0,1,2.76,7.11A11.16,11.16,0,0,1,406,676a12,12,0,0,1-5.06,4.22A17.42,17.42,0,0,1,393.53,681.74Z"/><path d="M437.74,660.79h16.85V681h-5.27l-1.57-4.25h-.48a10.68,10.68,0,0,1-4.4,3.71,15.15,15.15,0,0,1-6.54,1.32,15.58,15.58,0,0,1-14.66-9.08,22.6,22.6,0,0,1-2.1-10,21.23,21.23,0,0,1,2.25-10,16.47,16.47,0,0,1,6.27-6.67,18.07,18.07,0,0,1,9.41-2.4,19.16,19.16,0,0,1,8.06,1.64,15,15,0,0,1,5.81,4.62,14.09,14.09,0,0,1,2.73,6.93h-9a6.33,6.33,0,0,0-2.42-3.64,7.82,7.82,0,0,0-4.91-1.49,8.77,8.77,0,0,0-4.91,1.4,9.17,9.17,0,0,0-3.29,3.86,14.62,14.62,0,0,0,0,11.6,9.25,9.25,0,0,0,3.45,3.86,9.64,9.64,0,0,0,5.15,1.36,8.66,8.66,0,0,0,5.45-1.68,6.33,6.33,0,0,0,2.51-4.37h-8.4Z"/><path d="M502.51,673.15h17V681H494.21V644.33H519v7.81H502.51V659h14v7.33h-14Z"/><path d="M532.16,673.15h17V681H523.86V644.33h24.76v7.81H532.16V659h14v7.33h-14Z"/><path d="M576,644.33h8.3V681h-10l-12-23.4h-.49V681h-8.3V644.33h10l12,23.39H576Z"/><path d="M629.61,644.33h9.28L629.56,681H619.2l-5.71-25.5H613L607.29,681H596.93l-9.33-36.63h9.28l5.81,25.45h.49l4.6-25.45h10.94l4.59,25.45h.49Z"/><path d="M657,681.74a18.59,18.59,0,0,1-9.52-2.39,16.58,16.58,0,0,1-6.38-6.69,23.27,23.27,0,0,1,0-20,16.53,16.53,0,0,1,6.38-6.67,20.14,20.14,0,0,1,19.07,0,16.52,16.52,0,0,1,6.35,6.69,21.18,21.18,0,0,1,2.27,10.06,20.92,20.92,0,0,1-2.27,10,16.59,16.59,0,0,1-6.35,6.67A18.57,18.57,0,0,1,657,681.74Zm0-8.06a8.87,8.87,0,0,0,4.94-1.36,9.14,9.14,0,0,0,3.27-3.86,14.91,14.91,0,0,0,0-11.58A9.2,9.2,0,0,0,661.9,653a8.73,8.73,0,0,0-4.94-1.4,8.91,8.91,0,0,0-4.91,1.37,9.05,9.05,0,0,0-3.29,3.86,14.92,14.92,0,0,0,0,11.63,9.11,9.11,0,0,0,3.29,3.86A8.91,8.91,0,0,0,657,673.68Z"/><path d="M696.24,681.74a18.63,18.63,0,0,1-9.53-2.39,16.49,16.49,0,0,1-6.37-6.69,23.18,23.18,0,0,1,0-20,16.44,16.44,0,0,1,6.37-6.67,20.14,20.14,0,0,1,19.07,0,16.52,16.52,0,0,1,6.35,6.69,21.18,21.18,0,0,1,2.28,10.06,20.92,20.92,0,0,1-2.28,10,16.59,16.59,0,0,1-6.35,6.67A18.56,18.56,0,0,1,696.24,681.74Zm0-8.06a8.86,8.86,0,0,0,4.93-1.36,9.14,9.14,0,0,0,3.27-3.86,14.91,14.91,0,0,0,0-11.58,9.2,9.2,0,0,0-3.27-3.88,8.72,8.72,0,0,0-4.93-1.4,8.86,8.86,0,0,0-4.91,1.37,9,9,0,0,0-3.3,3.86,15,15,0,0,0,0,11.63,9.06,9.06,0,0,0,3.3,3.86A8.86,8.86,0,0,0,696.24,673.68Z"/><path d="M732.63,644.33a18.42,18.42,0,0,1,9.32,2.29,16.05,16.05,0,0,1,6.23,6.4,21.67,21.67,0,0,1-.07,19.25,16.07,16.07,0,0,1-6.45,6.42,20,20,0,0,1-9.72,2.27H718.8V644.33Zm-.89,28.82a9.85,9.85,0,0,0,5.18-1.32,9.17,9.17,0,0,0,3.45-3.69,11.65,11.65,0,0,0,1.24-5.5,11.88,11.88,0,0,0-1.22-5.52,9,9,0,0,0-3.42-3.66,9.85,9.85,0,0,0-5.18-1.32h-4.68v21Z"/><path d="M789.58,644.33V666.7q0,7.23-3.64,11.13t-10.43,3.91q-6.79,0-10.45-3.91T761.4,666.7h8.05a8.3,8.3,0,0,0,1.54,5.35,6.05,6.05,0,0,0,8.77,0,8.35,8.35,0,0,0,1.52-5.35V652.14H767.6v-7.81Z"/><path d="M822.21,673.15h1.85V681h-2.88a20.3,20.3,0,0,1-3.81-.27,3.37,3.37,0,0,1-2.07-1.22,13.81,13.81,0,0,1-1.64-3l-2.83-6.5a4.75,4.75,0,0,0-.83-1.47,2,2,0,0,0-1.22-.29h-5.52V681H795V644.33H811a15.12,15.12,0,0,1,6.45,1.27,9.79,9.79,0,0,1,4.27,3.68,10.54,10.54,0,0,1,1.54,5.79,10,10,0,0,1-7,10v.49a3.18,3.18,0,0,1,1.64,1.19,15,15,0,0,1,1.34,2.57l1.22,2.83a2,2,0,0,0,.59.83A2.31,2.31,0,0,0,822.21,673.15Zm-12-21h-7v8.31h7a4.62,4.62,0,0,0,3.25-1.15,4.24,4.24,0,0,0,0-6A4.58,4.58,0,0,0,810.24,652.14Z"/><path d="M487.47,673.15h1.85V681h-2.88a20.3,20.3,0,0,1-3.81-.27,3.37,3.37,0,0,1-2.07-1.22,13.81,13.81,0,0,1-1.64-3l-2.83-6.5a4.75,4.75,0,0,0-.83-1.47,2,2,0,0,0-1.23-.29h-5.52V681h-8.3V644.33h16.07a15.12,15.12,0,0,1,6.45,1.27,9.79,9.79,0,0,1,4.27,3.68,10.56,10.56,0,0,1,1.54,5.79,10,10,0,0,1-7,10v.49a3.12,3.12,0,0,1,1.63,1.19,14.22,14.22,0,0,1,1.35,2.57l1.22,2.83a1.94,1.94,0,0,0,.59.83A2.31,2.31,0,0,0,487.47,673.15Zm-12-21h-7v8.31h7a4.64,4.64,0,0,0,3.25-1.15,4.26,4.26,0,0,0,0-6A4.64,4.64,0,0,0,475.5,652.14Z"/><path d="M341.15,711.16a4.83,4.83,0,0,1,3.69,4.87,5.14,5.14,0,0,1-.79,2.84,5.38,5.38,0,0,1-2.19,1.94,7.26,7.26,0,0,1-3.3.7h-9v-20.4h8.15a7.93,7.93,0,0,1,3.36.66,5.22,5.22,0,0,1,2.23,1.84,4.81,4.81,0,0,1,.8,2.78,4.68,4.68,0,0,1-.8,2.74,4.6,4.6,0,0,1-2.14,1.72Zm-3.89-7.47h-4.54v6.2h4.82a3.5,3.5,0,0,0,2.44-.84,3.1,3.1,0,0,0-.09-4.49A3.86,3.86,0,0,0,337.26,703.69Zm.61,15.23a3.93,3.93,0,0,0,2.73-.91,3.06,3.06,0,0,0,1-2.39,3,3,0,0,0-1-2.4,4.13,4.13,0,0,0-2.78-.91h-5.07v6.61Z"/><path d="M358.8,721.87a8.31,8.31,0,0,1-4.19-1,7.13,7.13,0,0,1-2.78-2.85,8.87,8.87,0,0,1-1-4.28V701.11H354v12.61a5.33,5.33,0,0,0,1.32,3.77,4.52,4.52,0,0,0,3.5,1.43,4.46,4.46,0,0,0,3.48-1.43,5.37,5.37,0,0,0,1.31-3.77V701.11h3.14v12.61a9,9,0,0,1-1,4.28,7,7,0,0,1-2.77,2.85A8.27,8.27,0,0,1,358.8,721.87Z"/><path d="M382.51,704.05h-3.42v14.49h3.42v3h-10v-3h3.42V704.05h-3.42v-2.94h10Z"/><path d="M391.71,718.54h8.75v3H388.54v-20.4h3.17Z"/><path d="M413.49,701.11a10.2,10.2,0,0,1,5.2,1.28,8.94,8.94,0,0,1,3.47,3.56,11,11,0,0,1,1.24,5.35,10.85,10.85,0,0,1-1.27,5.35,8.93,8.93,0,0,1-3.55,3.58,10.76,10.76,0,0,1-5.34,1.28h-6.75v-20.4Zm-.31,17.43a6.94,6.94,0,0,0,3.61-.91,6.29,6.29,0,0,0,2.4-2.53,8.92,8.92,0,0,0,0-7.6A6.3,6.3,0,0,0,416.8,705a6.91,6.91,0,0,0-3.59-.91h-3.55v14.49Z"/><path d="M449.18,714.75a3.45,3.45,0,0,1-3.42-3.42,3.32,3.32,0,0,1,1-2.43,3.23,3.23,0,0,1,2.41-1,3.52,3.52,0,0,1,3.46,3.46,3.25,3.25,0,0,1-1,2.41A3.38,3.38,0,0,1,449.18,714.75Z"/><path d="M478.17,718.54h8.75v3H475v-20.4h3.17Z"/><path d="M496.12,718.54h10.57v3H493v-20.4h13.36v2.94H496.12v5.84h8.67v2.81h-8.67Z"/><path d="M526.71,721.51l-1.59-4.6h-9l-1.63,4.6h-3.3l7.54-20.4h3.75l7.54,20.4Zm-9.58-7.41h7l-3.27-9.39h-.42Z"/><path d="M542.52,701.11a10.24,10.24,0,0,1,5.21,1.28,8.91,8.91,0,0,1,3.46,3.56,12.07,12.07,0,0,1,0,10.7,9,9,0,0,1-3.56,3.58,10.76,10.76,0,0,1-5.34,1.28h-6.75v-20.4Zm-.3,17.43a6.9,6.9,0,0,0,3.6-.91,6.29,6.29,0,0,0,2.4-2.53,8.92,8.92,0,0,0,0-7.6,6.27,6.27,0,0,0-2.38-2.54,7,7,0,0,0-3.6-.91h-3.55v14.49Z"/><path d="M612.24,701.11a7,7,0,0,1,3.52.86,6.14,6.14,0,0,1,2.36,2.41,8.29,8.29,0,0,1,0,7.27,6,6,0,0,1-2.36,2.44,6.93,6.93,0,0,1-3.52.87h-5v6.55H604v-20.4ZM611.88,712a3.61,3.61,0,0,0,2.74-1.08,4.54,4.54,0,0,0,0-5.76,3.62,3.62,0,0,0-2.74-1.09H607.2V712Z"/><path d="M639.75,718.54h.71v3h-1a7,7,0,0,1-1.63-.14,1.61,1.61,0,0,1-.92-.57,6,6,0,0,1-.7-1.3l-1.71-4.71a1.86,1.86,0,0,0-.48-.8,1.44,1.44,0,0,0-.79-.16h-4.93v7.68H625.1v-20.4h8.07a8.6,8.6,0,0,1,3.6.71,5.55,5.55,0,0,1,2.4,2,5.79,5.79,0,0,1,.85,3.18,5.51,5.51,0,0,1-1,3.34,5.79,5.79,0,0,1-2.74,2v.33a1.6,1.6,0,0,1,.8.58,5.46,5.46,0,0,1,.6,1.15l1.13,3.44a1.23,1.23,0,0,0,.33.51A1,1,0,0,0,639.75,718.54Zm-7-14.49h-4.47v6.8h4.82a3.7,3.7,0,0,0,2.63-.92,3.12,3.12,0,0,0,1-2.41,3.19,3.19,0,0,0-1.1-2.52A4.3,4.3,0,0,0,632.73,704.05Z"/><path d="M656.1,721.9a10,10,0,0,1-5.2-1.32,9.14,9.14,0,0,1-3.47-3.71,13.15,13.15,0,0,1,0-11.15A9.14,9.14,0,0,1,650.9,702a10.92,10.92,0,0,1,10.41,0,9.16,9.16,0,0,1,3.47,3.72,12,12,0,0,1,1.24,5.59,11.83,11.83,0,0,1-1.24,5.55,9.14,9.14,0,0,1-3.47,3.71A10,10,0,0,1,656.1,721.9Zm0-3a6.25,6.25,0,0,0,3.46-1,6.47,6.47,0,0,0,2.3-2.65,8.88,8.88,0,0,0,.83-3.95,9,9,0,0,0-.83-4,6.38,6.38,0,0,0-2.3-2.64,6.36,6.36,0,0,0-9.21,2.62,9.91,9.91,0,0,0,0,7.94,6.39,6.39,0,0,0,2.31,2.66A6.28,6.28,0,0,0,656.1,718.87Z"/><path d="M686.31,701.11v2.94h-6.58v17.46h-3.17V704.05H670v-2.94Z"/><path d="M695.29,718.54h10.58v3H692.12v-20.4h13.36v2.94H695.29v5.84H704v2.81h-8.68Z"/><path d="M720.41,721.9a10.26,10.26,0,0,1-5.27-1.32,9.23,9.23,0,0,1-3.51-3.71,13.06,13.06,0,0,1,0-11.15,9.23,9.23,0,0,1,3.51-3.71,11.05,11.05,0,0,1,9.81-.33,8.87,8.87,0,0,1,3.29,2.77,9,9,0,0,1,1.58,4.17h-3.44a6.07,6.07,0,0,0-1.17-2.56,5.94,5.94,0,0,0-2.12-1.7,6.22,6.22,0,0,0-2.77-.61,6.33,6.33,0,0,0-3.47.94,6.24,6.24,0,0,0-2.31,2.63,9.91,9.91,0,0,0,0,7.94,6.14,6.14,0,0,0,5.78,3.61,6.22,6.22,0,0,0,2.77-.61,5.94,5.94,0,0,0,2.12-1.7,6.05,6.05,0,0,0,1.17-2.57h3.44a8.94,8.94,0,0,1-1.58,4.15,8.78,8.78,0,0,1-3.29,2.77A10.16,10.16,0,0,1,720.41,721.9Z"/><path d="M750.45,701.11v2.94h-6.58v17.46H740.7V704.05h-6.58v-2.94Z"/><path d="M578.21,714.75a3.3,3.3,0,0,1-2.41-1,3.26,3.26,0,0,1-1-2.41,3.32,3.32,0,0,1,1-2.43,3.25,3.25,0,0,1,2.41-1,3.52,3.52,0,0,1,3.46,3.46,3.25,3.25,0,0,1-1,2.41A3.35,3.35,0,0,1,578.21,714.75Z"/><path class="cls-2" d="M545.1,412.28V580.87a107.57,107.57,0,0,0,15.35-5.36l.72-.31A98.15,98.15,0,0,0,618.73,486V468.56h-37.1v20.37h16.68a77.67,77.67,0,0,1-32.85,60.44V417.85l53.28,14.57V411.31l-53.28-14.57h0l-20.36-5.59v20.6l-.14.5.14,0Z"/><path class="cls-2" d="M534.91,391.15l-5.27,1.45-15.09,4.12-53.3,14.58V486a98,98,0,0,0,20.36,59.71V488.93h32.94v84.24c1.22.62,2.45,1.22,3.68,1.79a97,97,0,0,0,15.07,5.47l1.61.44V412.28l.11,0-.11-.38Zm-20.36,77.41H481.61V426.84l32.94-9Z"/><path class="cls-2" d="M540,358.1,430.71,388v98A128.25,128.25,0,0,0,525.26,609.9L540,614l14.71-4A128.71,128.71,0,0,0,649.29,486V388ZM628.93,486a108.3,108.3,0,0,1-79.61,104.24L540,592.83l-9.36-2.57a107.51,107.51,0,0,1-55.09-35.78A108.19,108.19,0,0,1,451.07,486v-82.5L540,379.21l88.94,24.33Z"/></svg>