<svg xmlns="http://www.w3.org/2000/svg" viewBox="0 0 728.94 536.31"><defs><style>.cls-1{fill:#231f20;}</style></defs><g id="Layer_2" data-name="Layer 2"><g id="Layer_1-2" data-name="Layer 1"><path d="M40,476l-3-9.22H16L13,476H0l19.44-54H33.56L53,476Zm-20.53-20h14l-6.62-20.31h-.72Z"/><path d="M99,422H115.5v54H103.26V442.47h-.72L92.1,476h-11L70.86,442.47h-.72V476H57.9V422H74.39l12,38.09h.72Z"/><path d="M148.77,477.11a27.36,27.36,0,0,1-14-3.53,24.34,24.34,0,0,1-9.4-9.86,34.28,34.28,0,0,1,0-29.56,24.39,24.39,0,0,1,9.4-9.83,29.77,29.77,0,0,1,28.12,0,24.38,24.38,0,0,1,9.36,9.86A31.36,31.36,0,0,1,175.56,449a31,31,0,0,1-3.35,14.72,24.42,24.42,0,0,1-9.36,9.83A27.33,27.33,0,0,1,148.77,477.11Zm0-11.88a13,13,0,0,0,7.27-2,13.34,13.34,0,0,0,4.83-5.69,21.89,21.89,0,0,0,0-17.06,13.63,13.63,0,0,0-4.83-5.73,12.81,12.81,0,0,0-7.27-2.05,13.06,13.06,0,0,0-7.24,2,13.43,13.43,0,0,0-4.86,5.68,22.09,22.09,0,0,0,0,17.14,13.4,13.4,0,0,0,4.86,5.69A13.06,13.06,0,0,0,148.77,465.23Z"/><path d="M202.85,477.11a26.31,26.31,0,0,1-11.23-2.31,20.53,20.53,0,0,1-8.11-6.58,22.45,22.45,0,0,1-4-10.12h12.6a10.05,10.05,0,0,0,3.31,6.12,12.1,12.1,0,0,0,13.47.76,5.37,5.37,0,0,0,2.45-4.65c0-3-1.8-4.73-5.4-5.26l-9.51-1.36q-7.56-1.08-11.74-5.08a14,14,0,0,1-4.17-10.55,15.93,15.93,0,0,1,2.59-9.07,17.24,17.24,0,0,1,7.16-6.05,24.63,24.63,0,0,1,10.63-2.16A25.29,25.29,0,0,1,211.78,423a19.68,19.68,0,0,1,7.7,6.3,20.48,20.48,0,0,1,3.68,9.54H210.55a8.76,8.76,0,0,0-3.06-5.58,9.65,9.65,0,0,0-6.37-2.05,10.16,10.16,0,0,0-5.65,1.51,4.91,4.91,0,0,0-2.34,4.39q0,4.39,5.61,5.19l9.51,1.37q7.56,1.08,11.63,5.15A14.17,14.17,0,0,1,224,459.32a16.39,16.39,0,0,1-2.7,9.36,17.65,17.65,0,0,1-7.45,6.23A25.76,25.76,0,0,1,202.85,477.11Z"/><path d="M268,446.22h24.84V476h-7.78l-2.3-6.27h-.72a15.83,15.83,0,0,1-6.48,5.48,22.43,22.43,0,0,1-9.65,1.94,23,23,0,0,1-21.6-13.39,33.21,33.21,0,0,1-3.1-14.77,31.33,31.33,0,0,1,3.31-14.79,24.39,24.39,0,0,1,9.26-9.83,26.65,26.65,0,0,1,13.86-3.53,28.18,28.18,0,0,1,11.88,2.41,22.09,22.09,0,0,1,8.57,6.81,20.83,20.83,0,0,1,4,10.22H278.82a9.25,9.25,0,0,0-3.57-5.36,11.45,11.45,0,0,0-7.23-2.2,12.89,12.89,0,0,0-7.24,2.05,13.62,13.62,0,0,0-4.86,5.69,19.74,19.74,0,0,0-1.73,8.53,19.24,19.24,0,0,0,1.8,8.57,13.4,13.4,0,0,0,5.08,5.69,14.15,14.15,0,0,0,7.6,2,12.71,12.71,0,0,0,8-2.49,9.34,9.34,0,0,0,3.7-6.44H268Z"/><path d="M363.5,464.44h25V476H351.26V422h36.51v11.52H363.5v10.08h20.67v10.8H363.5Z"/><path d="M407.21,464.44h25V476H395V422h36.51v11.52H407.21v10.08h20.67v10.8H407.21Z"/><path d="M471.8,422H484v54H469.28l-17.64-34.49h-.72V476H438.68V422h14.76l17.64,34.49h.72Z"/><path d="M550.87,422h13.68L550.8,476H535.53l-8.43-37.59h-.71L518,476H502.69l-13.75-54h13.68l8.57,37.52h.72L518.68,422h16.13l6.77,37.52h.72Z"/><path d="M591.19,477.11a27.39,27.39,0,0,1-14-3.53,24.41,24.41,0,0,1-9.4-9.86,34.37,34.37,0,0,1,0-29.56,24.45,24.45,0,0,1,9.4-9.83,29.77,29.77,0,0,1,28.12,0,24.38,24.38,0,0,1,9.36,9.86A31.36,31.36,0,0,1,618,449a31,31,0,0,1-3.35,14.72,24.42,24.42,0,0,1-9.36,9.83A27.33,27.33,0,0,1,591.19,477.11Zm0-11.88a13,13,0,0,0,7.27-2,13.34,13.34,0,0,0,4.83-5.69,21.89,21.89,0,0,0,0-17.06,13.63,13.63,0,0,0-4.83-5.73,12.81,12.81,0,0,0-7.27-2.05,13,13,0,0,0-7.23,2,13.29,13.29,0,0,0-4.86,5.68,22.09,22.09,0,0,0,0,17.14,13.26,13.26,0,0,0,4.86,5.69A13,13,0,0,0,591.19,465.23Z"/><path d="M649.09,477.11a27.36,27.36,0,0,1-14-3.53,24.28,24.28,0,0,1-9.4-9.86,34.28,34.28,0,0,1,0-29.56,24.32,24.32,0,0,1,9.4-9.83,29.75,29.75,0,0,1,28.11,0,24.47,24.47,0,0,1,9.37,9.86A31.36,31.36,0,0,1,675.88,449a31,31,0,0,1-3.35,14.72,24.51,24.51,0,0,1-9.37,9.83A27.3,27.3,0,0,1,649.09,477.11Zm0-11.88a13,13,0,0,0,7.27-2,13.39,13.39,0,0,0,4.82-5.69,21.89,21.89,0,0,0,0-17.06,13.68,13.68,0,0,0-4.82-5.73,12.83,12.83,0,0,0-7.27-2.05,13,13,0,0,0-7.24,2,13.29,13.29,0,0,0-4.86,5.68,22.09,22.09,0,0,0,0,17.14,13.26,13.26,0,0,0,4.86,5.69A13,13,0,0,0,649.09,465.23Z"/><path d="M702.73,422a27.25,27.25,0,0,1,13.76,3.38,23.76,23.76,0,0,1,9.18,9.44,31.92,31.92,0,0,1-.11,28.37,23.6,23.6,0,0,1-9.5,9.47A29.46,29.46,0,0,1,701.73,476H682.36V422Zm-1.29,42.49a14.51,14.51,0,0,0,7.63-1.95,13.55,13.55,0,0,0,5.08-5.44A17.16,17.16,0,0,0,716,449a17.35,17.35,0,0,0-1.8-8.13,13.27,13.27,0,0,0-5-5.4,14.51,14.51,0,0,0-7.63-1.95H694.6v31Z"/><path d="M341.32,464.44h2.74V476h-4.25a29.54,29.54,0,0,1-5.62-.4,5,5,0,0,1-3.06-1.8,21,21,0,0,1-2.41-4.35l-4.17-9.58a6.43,6.43,0,0,0-1.23-2.16,2.81,2.81,0,0,0-1.8-.43h-8.14V476H301.14V422h23.69a22.53,22.53,0,0,1,9.51,1.87,14.5,14.5,0,0,1,6.3,5.44,15.58,15.58,0,0,1,2.27,8.53,14.67,14.67,0,0,1-10.37,14.69v.72A4.74,4.74,0,0,1,335,455a21,21,0,0,1,2,3.78l1.8,4.18a3,3,0,0,0,.87,1.22A3.44,3.44,0,0,0,341.32,464.44Zm-17.64-31h-10.3v12.24h10.3a6.79,6.79,0,0,0,4.79-1.69,6.24,6.24,0,0,0,0-8.85A6.79,6.79,0,0,0,323.68,433.47Z"/><path d="M71.32,520.47a7.13,7.13,0,0,1,5.44,7.19,7.58,7.58,0,0,1-1.16,4.18,7.86,7.86,0,0,1-3.22,2.86,10.79,10.79,0,0,1-4.87,1H54.23V505.66h12a11.72,11.72,0,0,1,5,1,7.85,7.85,0,0,1,3.29,2.72,7.19,7.19,0,0,1,1.18,4.1,7,7,0,0,1-1.18,4A6.91,6.91,0,0,1,71.32,520Zm-5.72-11H58.9v9.14H66a5.17,5.17,0,0,0,3.59-1.24,4.56,4.56,0,0,0-.13-6.62A5.72,5.72,0,0,0,65.6,509.47Zm.89,22.45a5.83,5.83,0,0,0,4-1.34,4.5,4.5,0,0,0,1.5-3.53,4.44,4.44,0,0,0-1.54-3.53,6,6,0,0,0-4.1-1.34H58.9v9.74Z"/><path d="M97.35,536.27a12.3,12.3,0,0,1-6.18-1.51,10.49,10.49,0,0,1-4.1-4.2,13.1,13.1,0,0,1-1.46-6.31V505.66h4.63v18.59a7.87,7.87,0,0,0,2,5.56,7.33,7.33,0,0,0,10.29,0,8,8,0,0,0,1.93-5.56V505.66H109v18.59a13.09,13.09,0,0,1-1.45,6.31,10.29,10.29,0,0,1-4.07,4.2A12.29,12.29,0,0,1,97.35,536.27Z"/><path d="M132.3,510h-5v21.35h5v4.39H117.56v-4.39h5V510h-5v-4.34H132.3Z"/><path d="M145.86,531.35h12.91v4.39H141.19V505.66h4.67Z"/><path d="M178,505.66a15.22,15.22,0,0,1,7.67,1.88,13.13,13.13,0,0,1,5.11,5.26,16.26,16.26,0,0,1,1.83,7.88,16,16,0,0,1-1.87,7.89,13.28,13.28,0,0,1-5.23,5.28,15.84,15.84,0,0,1-7.88,1.89h-9.95V505.66Zm-.45,25.69a10.23,10.23,0,0,0,5.32-1.34,9.2,9.2,0,0,0,3.53-3.73,13.1,13.1,0,0,0,0-11.21,9.28,9.28,0,0,0-3.51-3.73,10.2,10.2,0,0,0-5.3-1.34h-5.24v21.35Z"/><path d="M230.58,525.77a5.09,5.09,0,0,1-5-5,4.93,4.93,0,0,1,1.49-3.59,4.8,4.8,0,0,1,3.55-1.52,5.19,5.19,0,0,1,5.11,5.11,4.8,4.8,0,0,1-1.52,3.55A5,5,0,0,1,230.58,525.77Z"/><path d="M273.32,531.35h12.91v4.39H268.65V505.66h4.67Z"/><path d="M299.78,531.35h15.59v4.39H295.11V505.66H314.8V510h-15v8.61h12.79v4.14H299.78Z"/><path d="M344.88,535.74,342.53,529H329.3l-2.4,6.78H322l11.12-30.08h5.52l11.13,30.08Zm-14.12-10.92h10.31L336.24,511h-.61Z"/><path d="M368.19,505.66a15.22,15.22,0,0,1,7.67,1.88A13.22,13.22,0,0,1,381,512.8a16.37,16.37,0,0,1,1.82,7.88,16.14,16.14,0,0,1-1.86,7.89,13.31,13.31,0,0,1-5.24,5.28,15.84,15.84,0,0,1-7.88,1.89h-9.94V505.66Zm-.45,25.69a10.23,10.23,0,0,0,5.32-1.34,9.14,9.14,0,0,0,3.53-3.73,13.1,13.1,0,0,0,0-11.21,9.28,9.28,0,0,0-3.51-3.73,10.2,10.2,0,0,0-5.3-1.34h-5.23v21.35Z"/><path d="M471,505.66a10.29,10.29,0,0,1,5.19,1.27,8.94,8.94,0,0,1,3.47,3.56,11,11,0,0,1,1.24,5.36,11.12,11.12,0,0,1-1.24,5.35,8.85,8.85,0,0,1-3.47,3.6,10.29,10.29,0,0,1-5.19,1.28h-7.43v9.66h-4.67V505.66Zm-.53,16a5.31,5.31,0,0,0,4-1.6,6.69,6.69,0,0,0,0-8.49,5.31,5.31,0,0,0-4-1.6h-6.9v11.69Z"/><path d="M511.52,531.35h1.06v4.39H511a10.5,10.5,0,0,1-2.39-.21,2.27,2.27,0,0,1-1.36-.85,8.32,8.32,0,0,1-1-1.91l-2.52-6.94a2.75,2.75,0,0,0-.71-1.18,2.07,2.07,0,0,0-1.15-.24h-7.27v11.33h-4.67V505.66h11.9a12.52,12.52,0,0,1,5.31,1,8.16,8.16,0,0,1,3.54,3,8.57,8.57,0,0,1,1.26,4.68,8.11,8.11,0,0,1-1.49,4.92,8.38,8.38,0,0,1-4,3v.49a2.3,2.3,0,0,1,1.18.85,7.74,7.74,0,0,1,.89,1.7l1.67,5.08a1.75,1.75,0,0,0,.49.75A1.58,1.58,0,0,0,511.52,531.35ZM501.17,510h-6.58v10h7.11a5.54,5.54,0,0,0,3.87-1.36,4.6,4.6,0,0,0,1.48-3.56,4.66,4.66,0,0,0-1.62-3.71A6.3,6.3,0,0,0,501.17,510Z"/><path d="M535.63,536.31a14.75,14.75,0,0,1-7.67-1.95,13.34,13.34,0,0,1-5.11-5.46,19.38,19.38,0,0,1,0-16.44A13.22,13.22,0,0,1,528,507a16.08,16.08,0,0,1,15.35,0,13.27,13.27,0,0,1,5.11,5.48,17.65,17.65,0,0,1,1.83,8.24,17.46,17.46,0,0,1-1.83,8.18,13.4,13.4,0,0,1-5.11,5.46A14.79,14.79,0,0,1,535.63,536.31Zm0-4.47a9.24,9.24,0,0,0,5.1-1.4,9.37,9.37,0,0,0,3.39-3.9,13.13,13.13,0,0,0,1.22-5.82,13.26,13.26,0,0,0-1.22-5.87,9.49,9.49,0,0,0-3.39-3.9,9.38,9.38,0,0,0-13.58,3.86,14.66,14.66,0,0,0,0,11.71,9.34,9.34,0,0,0,3.41,3.92A9.23,9.23,0,0,0,535.63,531.84Z"/><path d="M580.17,505.66V510h-9.71v25.74H565.8V510h-9.71v-4.34Z"/><path d="M593.4,531.35H609v4.39H588.73V505.66h19.69V510h-15v8.61h12.79v4.14H593.4Z"/><path d="M630.43,536.31a15.06,15.06,0,0,1-7.76-1.95,13.5,13.5,0,0,1-5.18-5.46,19.28,19.28,0,0,1,0-16.44,13.38,13.38,0,0,1,5.18-5.46,15.06,15.06,0,0,1,7.76-1.95,14.81,14.81,0,0,1,6.69,1.46,12.75,12.75,0,0,1,4.85,4.08,13.11,13.11,0,0,1,2.34,6.15h-5.08a8.9,8.9,0,0,0-1.72-3.78,8.77,8.77,0,0,0-3.13-2.51,9.18,9.18,0,0,0-4.08-.9,9.05,9.05,0,0,0-8.52,5.26,14.66,14.66,0,0,0,0,11.71,9.56,9.56,0,0,0,12.6,4.43,8.85,8.85,0,0,0,4.85-6.3h5.08a13.08,13.08,0,0,1-2.34,6.11,12.75,12.75,0,0,1-4.85,4.08A14.82,14.82,0,0,1,630.43,536.31Z"/><path d="M674.71,505.66V510H665v25.74h-4.67V510h-9.7v-4.34Z"/><path d="M420.8,525.77a5.09,5.09,0,0,1-5-5,4.93,4.93,0,0,1,1.49-3.59,4.8,4.8,0,0,1,3.55-1.52,5.19,5.19,0,0,1,5.11,5.11,4.8,4.8,0,0,1-1.52,3.55A5,5,0,0,1,420.8,525.77Z"/><path class="cls-1" d="M377.86,79.87V328.4a158.58,158.58,0,0,0,22.63-7.89l1.06-.47A144.68,144.68,0,0,0,486.4,188.59V162.84H431.72v30H456.3A114.56,114.56,0,0,1,407.88,282V88.08l78.54,21.48V78.44L407.88,57h0l-30-8.23V79.09l-.2.73.2.05Z"/><path class="cls-1" d="M362.84,48.72l-7.78,2.13-22.24,6.08L254.25,78.42V188.59a144.4,144.4,0,0,0,30,88V192.86h48.55V317.05q2.7,1.38,5.43,2.65a144.55,144.55,0,0,0,22.22,8.05l2.37.65V79.87l.15-.05-.15-.55Zm-30,114.12H284.27V101.33l48.55-13.26Z"/><path class="cls-1" d="M370.33,0,209.22,44.06V188.6A189,189,0,0,0,348.61,371.2l21.72,6,21.68-6A189.72,189.72,0,0,0,531.45,188.6V44.08Zm131.1,188.6A159.64,159.64,0,0,1,384.08,342.26L370.33,346l-13.8-3.79A159.4,159.4,0,0,1,239.24,188.6V67L370.33,31.12,501.43,67Z"/></g></g></svg>