<svg xmlns="http://www.w3.org/2000/svg" viewBox="0 0 374.96 438.89"><defs><style>.cls-1{fill:#fff;}</style></defs><g id="Layer_2" data-name="Layer 2"><g id="Layer_1-2" data-name="Layer 1"><path class="cls-1" d="M196.23,92.94v289.2A185.7,185.7,0,0,0,222.56,373l1.24-.54a168.34,168.34,0,0,0,98.73-153v-30H258.9v34.93h28.6a133.25,133.25,0,0,1-56.34,103.69V102.49l91.4,25V91.28l-91.4-25h0L196.23,56.7V92l-.23.84.23.06Z"/><path class="cls-1" d="M178.75,56.7l-9.05,2.47-25.88,7.07-91.43,25v128.2A168,168,0,0,0,87.32,321.88V224.42h56.5v144.5c2.1,1.08,4.2,2.1,6.32,3.09A167,167,0,0,0,176,381.38l2.76.76V92.94l.18-.06-.18-.64ZM143.82,189.49H87.32V117.91l56.5-15.42Z"/><path class="cls-1" d="M187.46,0,0,51.26v168.2A220.05,220.05,0,0,0,162.19,431.94l25.27,6.95L212.7,432C308.23,405.87,375,318.49,375,219.46V51.29ZM340,219.46a185.75,185.75,0,0,1-136.55,178.8l-16,4.4-16.05-4.41A185.47,185.47,0,0,1,34.93,219.46V77.93L187.46,36.21,340,78Z"/></g></g></svg>