<svg xmlns="http://www.w3.org/2000/svg" viewBox="0 0 728.94 466.77"><defs><style>.cls-1{fill:#fff;}</style></defs><g id="Layer_2" data-name="Layer 2"><g id="Layer_1-2" data-name="Layer 1"><path class="cls-1" d="M34.85,414.25l-2.64-8H13.91l-2.63,8H0l16.92-47H29.21l16.92,47ZM17,396.82H29.14l-5.76-17.67h-.63Z"/><path class="cls-1" d="M86.17,367.24h14.36v47H89.87V385.1h-.62l-9.09,29.15H70.57l-8.9-29.15H61v29.15H50.39v-47H64.74l10.4,33.16h.63Z"/><path class="cls-1" d="M129.48,415.25a23.8,23.8,0,0,1-12.22-3.07,21.17,21.17,0,0,1-8.18-8.59,29.87,29.87,0,0,1,0-25.72,21.21,21.21,0,0,1,8.18-8.56,25.94,25.94,0,0,1,24.48,0,21.27,21.27,0,0,1,8.14,8.59,27.14,27.14,0,0,1,2.92,12.91,26.79,26.79,0,0,1-2.92,12.81,21.32,21.32,0,0,1-8.14,8.56A23.77,23.77,0,0,1,129.48,415.25Zm0-10.34a11.31,11.31,0,0,0,6.33-1.76,11.58,11.58,0,0,0,4.2-4.95,17.05,17.05,0,0,0,1.51-7.39,17.25,17.25,0,0,0-1.51-7.46,11.84,11.84,0,0,0-4.2-5,11.17,11.17,0,0,0-6.33-1.79,11.4,11.4,0,0,0-6.3,1.76,11.7,11.7,0,0,0-4.23,5,19.28,19.28,0,0,0,0,14.91,11.64,11.64,0,0,0,4.23,4.95A11.4,11.4,0,0,0,129.48,404.91Z"/><path class="cls-1" d="M176.55,415.25a23.1,23.1,0,0,1-9.78-2,17.94,17.94,0,0,1-7.05-5.74,19.43,19.43,0,0,1-3.48-8.81h11a8.7,8.7,0,0,0,2.88,5.33,9.25,9.25,0,0,0,6.4,2.13,9.14,9.14,0,0,0,5.32-1.47,4.66,4.66,0,0,0,2.14-4q0-3.88-4.71-4.58L171,394.88q-6.57-.94-10.21-4.42a12.1,12.1,0,0,1-3.64-9.18,13.87,13.87,0,0,1,2.26-7.9,15,15,0,0,1,6.23-5.26,21.52,21.52,0,0,1,9.25-1.88,22.09,22.09,0,0,1,9.46,1.94,17.22,17.22,0,0,1,6.71,5.49,17.9,17.9,0,0,1,3.19,8.3h-11a7.71,7.71,0,0,0-2.67-4.86,8.41,8.41,0,0,0-5.54-1.78,8.89,8.89,0,0,0-4.92,1.31,4.29,4.29,0,0,0-2,3.83q0,3.82,4.89,4.51l8.27,1.19q6.58.94,10.12,4.48a12.34,12.34,0,0,1,3.54,9.12,14.29,14.29,0,0,1-2.35,8.15,15.37,15.37,0,0,1-6.48,5.42A22.58,22.58,0,0,1,176.55,415.25Z"/><path class="cls-1" d="M233.27,388.36h21.62v25.89h-6.77l-2-5.45h-.63a13.79,13.79,0,0,1-5.64,4.76,19.4,19.4,0,0,1-8.4,1.69,20,20,0,0,1-18.8-11.66A28.86,28.86,0,0,1,210,390.75a27.19,27.19,0,0,1,2.88-12.88,21.17,21.17,0,0,1,8-8.56A23.16,23.16,0,0,1,233,366.24a24.54,24.54,0,0,1,10.35,2.1,19.12,19.12,0,0,1,7.45,5.92,18.07,18.07,0,0,1,3.51,8.9H242.67a8.09,8.09,0,0,0-3.1-4.67,10,10,0,0,0-6.3-1.91,11.25,11.25,0,0,0-6.3,1.79,11.8,11.8,0,0,0-4.23,4.95,17.16,17.16,0,0,0-1.5,7.43,16.78,16.78,0,0,0,1.56,7.45,11.7,11.7,0,0,0,4.42,4.95,12.37,12.37,0,0,0,6.61,1.76,11.08,11.08,0,0,0,7-2.16,8.14,8.14,0,0,0,3.23-5.61H233.27Z"/><path class="cls-1" d="M316.37,404.22h21.75v10h-32.4v-47h31.77v10H316.37V386h18v9.41h-18Z"/><path class="cls-1" d="M354.41,404.22h21.75v10h-32.4v-47h31.78v10H354.41V386h18v9.41h-18Z"/><path class="cls-1" d="M410.63,367.24h10.66v47H408.44l-15.36-30h-.62v30H381.8v-47h12.85l15.36,30h.62Z"/><path class="cls-1" d="M479.45,367.24h11.9l-12,47H466.1l-7.34-32.72h-.62l-7.34,32.72H437.52l-12-47h11.91l7.45,32.66h.63l5.89-32.66h14l5.89,32.66H472Z"/><path class="cls-1" d="M514.54,415.25a23.8,23.8,0,0,1-12.22-3.07,21.23,21.23,0,0,1-8.18-8.59,29.87,29.87,0,0,1,0-25.72,21.28,21.28,0,0,1,8.18-8.56,25.94,25.94,0,0,1,24.48,0,21.27,21.27,0,0,1,8.14,8.59,27.14,27.14,0,0,1,2.92,12.91,26.79,26.79,0,0,1-2.92,12.81,21.32,21.32,0,0,1-8.14,8.56A23.77,23.77,0,0,1,514.54,415.25Zm0-10.34a11.31,11.31,0,0,0,6.33-1.76,11.58,11.58,0,0,0,4.2-4.95,17.05,17.05,0,0,0,1.51-7.39,17.25,17.25,0,0,0-1.51-7.46,11.84,11.84,0,0,0-4.2-5,11.17,11.17,0,0,0-6.33-1.79,11.4,11.4,0,0,0-6.3,1.76,11.7,11.7,0,0,0-4.23,5,19.28,19.28,0,0,0,0,14.91,11.64,11.64,0,0,0,4.23,4.95A11.4,11.4,0,0,0,514.54,404.91Z"/><path class="cls-1" d="M564.93,415.25a23.77,23.77,0,0,1-12.22-3.07,21.17,21.17,0,0,1-8.18-8.59,29.87,29.87,0,0,1,0-25.72,21.21,21.21,0,0,1,8.18-8.56,25.92,25.92,0,0,1,24.47,0,21.23,21.23,0,0,1,8.15,8.59,27.26,27.26,0,0,1,2.92,12.91,26.91,26.91,0,0,1-2.92,12.81,21.27,21.27,0,0,1-8.15,8.56A23.73,23.73,0,0,1,564.93,415.25Zm0-10.34a11.33,11.33,0,0,0,6.33-1.76,11.58,11.58,0,0,0,4.2-4.95,17.2,17.2,0,0,0,1.51-7.39,17.4,17.4,0,0,0-1.51-7.46,11.84,11.84,0,0,0-4.2-5,11.19,11.19,0,0,0-6.33-1.79,11.4,11.4,0,0,0-6.3,1.76,11.63,11.63,0,0,0-4.23,5,19.28,19.28,0,0,0,0,14.91,11.57,11.57,0,0,0,4.23,4.95A11.4,11.4,0,0,0,564.93,404.91Z"/><path class="cls-1" d="M611.62,367.24a23.66,23.66,0,0,1,12,2.95,20.5,20.5,0,0,1,8,8.21,27.77,27.77,0,0,1-.09,24.69,20.56,20.56,0,0,1-8.27,8.24,25.53,25.53,0,0,1-12.47,2.92H593.89v-47Zm-1.13,37a12.67,12.67,0,0,0,6.65-1.69,11.87,11.87,0,0,0,4.42-4.73,15,15,0,0,0,1.59-7.05,15.22,15.22,0,0,0-1.56-7.09,11.71,11.71,0,0,0-4.39-4.7,12.66,12.66,0,0,0-6.64-1.69h-6v27Z"/><path class="cls-1" d="M684.7,367.24V396q0,9.27-4.67,14.29t-13.38,5q-8.71,0-13.41-5T648.54,396h10.34c0,3,.65,5.25,2,6.86a7.77,7.77,0,0,0,11.25,0c1.29-1.61,1.94-3.89,1.94-6.86V377.27H656.5v-10Z"/><path class="cls-1" d="M726.56,404.22h2.38v10h-3.69a26.09,26.09,0,0,1-4.89-.35,4.37,4.37,0,0,1-2.66-1.56,17.89,17.89,0,0,1-2.1-3.79L712,400.21a5.76,5.76,0,0,0-1.06-1.88,2.49,2.49,0,0,0-1.57-.38h-7.08v16.3H691.59v-47h20.62a19.55,19.55,0,0,1,8.27,1.63A12.76,12.76,0,0,1,726,373.6a13.62,13.62,0,0,1,2,7.43,12.8,12.8,0,0,1-9,12.79v.62A4.19,4.19,0,0,1,721,396a18.75,18.75,0,0,1,1.72,3.29l1.57,3.63a2.57,2.57,0,0,0,.75,1.07A3,3,0,0,0,726.56,404.22Zm-15.35-27h-9v10.66h9a5.94,5.94,0,0,0,4.17-1.48,5.44,5.44,0,0,0,0-7.71A5.93,5.93,0,0,0,711.21,377.27Z"/><path class="cls-1" d="M297.07,404.22h2.38v10h-3.7a26.09,26.09,0,0,1-4.89-.35,4.38,4.38,0,0,1-2.66-1.56,17.89,17.89,0,0,1-2.1-3.79l-3.63-8.34a5.73,5.73,0,0,0-1.07-1.88,2.45,2.45,0,0,0-1.57-.38h-7.08v16.3H262.1v-47h20.62a19.58,19.58,0,0,1,8.27,1.63,12.63,12.63,0,0,1,5.48,4.74,13.48,13.48,0,0,1,2,7.42,12.77,12.77,0,0,1-9,12.79v.62a4.14,4.14,0,0,1,2.1,1.54,18.67,18.67,0,0,1,1.73,3.29l1.56,3.64a2.51,2.51,0,0,0,.76,1.06A3,3,0,0,0,297.07,404.22Zm-15.36-27h-9v10.66h9a5.86,5.86,0,0,0,4.17-1.48,5.43,5.43,0,0,0,0-7.7A5.86,5.86,0,0,0,281.71,377.27Z"/><path class="cls-1" d="M109.33,453a6.2,6.2,0,0,1,4.73,6.26,6.68,6.68,0,0,1-1,3.64,6.88,6.88,0,0,1-2.81,2.49,9.39,9.39,0,0,1-4.24.9H94.45V440.1h10.46a10.26,10.26,0,0,1,4.31.84,6.88,6.88,0,0,1,2.87,2.37,6.24,6.24,0,0,1,1,3.57,6.12,6.12,0,0,1-1,3.52,6.05,6.05,0,0,1-2.76,2.2Zm-5-9.57H98.52v7.95h6.18a4.46,4.46,0,0,0,3.13-1.08,4,4,0,0,0-.11-5.76A5,5,0,0,0,104.35,443.42Zm.78,19.54a5,5,0,0,0,3.49-1.17,4.23,4.23,0,0,0,0-6.15,5.3,5.3,0,0,0-3.57-1.16h-6.5V463Z"/><path class="cls-1" d="M132,466.74a10.68,10.68,0,0,1-5.37-1.31,9.11,9.11,0,0,1-3.57-3.66,11.33,11.33,0,0,1-1.27-5.49V440.1h4v16.18a6.86,6.86,0,0,0,1.69,4.84A5.84,5.84,0,0,0,132,463a5.78,5.78,0,0,0,4.47-1.84,6.9,6.9,0,0,0,1.68-4.84V440.1h4v16.18a11.44,11.44,0,0,1-1.25,5.49,9,9,0,0,1-3.55,3.66A10.68,10.68,0,0,1,132,466.74Z"/><path class="cls-1" d="M162.4,443.88H158v18.58h4.38v3.82H149.58v-3.82H154V443.88h-4.38V440.1H162.4Z"/><path class="cls-1" d="M174.2,462.46h11.24v3.82h-15.3V440.1h4.06Z"/><path class="cls-1" d="M202.15,440.1a13.15,13.15,0,0,1,6.68,1.64,11.51,11.51,0,0,1,4.45,4.57,14.18,14.18,0,0,1,1.59,6.86,13.93,13.93,0,0,1-1.63,6.87,11.45,11.45,0,0,1-4.56,4.59,13.73,13.73,0,0,1-6.85,1.65h-8.66V440.1Zm-.39,22.36a9,9,0,0,0,4.63-1.16,8,8,0,0,0,3.07-3.26,11.35,11.35,0,0,0,0-9.75A8.06,8.06,0,0,0,206.4,445a8.89,8.89,0,0,0-4.61-1.16h-4.55v18.58Z"/><path class="cls-1" d="M247.94,457.6a4.42,4.42,0,0,1-4.39-4.39,4.3,4.3,0,0,1,1.3-3.12,4.17,4.17,0,0,1,3.09-1.32,4.51,4.51,0,0,1,4.44,4.44,4.21,4.21,0,0,1-1.32,3.1A4.32,4.32,0,0,1,247.94,457.6Z"/><path class="cls-1" d="M285.13,462.46h11.24v3.82h-15.3V440.1h4.06Z"/><path class="cls-1" d="M308.17,462.46h13.57v3.82H304.11V440.1h17.13v3.78H308.17v7.49H319.3V455H308.17Z"/><path class="cls-1" d="M347.42,466.28l-2-5.9H333.86l-2.09,5.9h-4.24l9.68-26.18H342l9.68,26.18Zm-12.29-9.51h9l-4.2-12h-.53Z"/><path class="cls-1" d="M367.71,440.1a13.09,13.09,0,0,1,6.67,1.64,11.53,11.53,0,0,1,4.46,4.57,14.18,14.18,0,0,1,1.59,6.86A14,14,0,0,1,378.8,460a11.45,11.45,0,0,1-4.56,4.59,13.73,13.73,0,0,1-6.85,1.65h-8.66V440.1Zm-.39,22.36A9,9,0,0,0,372,461.3,8,8,0,0,0,375,458a11.45,11.45,0,0,0,0-9.75A8.06,8.06,0,0,0,372,445a8.89,8.89,0,0,0-4.61-1.16H362.8v18.58Z"/><path class="cls-1" d="M457.16,440.1a9,9,0,0,1,4.52,1.11,7.74,7.74,0,0,1,3,3.09,9.58,9.58,0,0,1,1.08,4.66,9.73,9.73,0,0,1-1.08,4.67,7.78,7.78,0,0,1-3,3.13,9,9,0,0,1-4.52,1.11h-6.47v8.41h-4.06V440.1Zm-.46,13.95a4.6,4.6,0,0,0,3.51-1.39,5.8,5.8,0,0,0,0-7.39,4.6,4.6,0,0,0-3.51-1.39h-6v10.17Z"/><path class="cls-1" d="M492.45,462.46h.92v3.82H492a9.22,9.22,0,0,1-2.08-.18,2.07,2.07,0,0,1-1.19-.74,7.87,7.87,0,0,1-.9-1.66l-2.19-6a2.3,2.3,0,0,0-.62-1,1.81,1.81,0,0,0-1-.21h-6.32v9.86h-4.06V440.1H484a10.93,10.93,0,0,1,4.63.91,7.09,7.09,0,0,1,3.07,2.64,7.41,7.41,0,0,1,1.1,4.08,7,7,0,0,1-1.29,4.27,7.31,7.31,0,0,1-3.52,2.58V455a2,2,0,0,1,1,.74,6.66,6.66,0,0,1,.77,1.48l1.45,4.42a1.57,1.57,0,0,0,.43.65A1.32,1.32,0,0,0,492.45,462.46Zm-9-18.58h-5.72v8.72h6.18a4.8,4.8,0,0,0,3.38-1.18,4.37,4.37,0,0,0-.13-6.32A5.42,5.42,0,0,0,483.44,443.88Z"/><path class="cls-1" d="M513.44,466.77a12.82,12.82,0,0,1-6.67-1.69,11.65,11.65,0,0,1-4.46-4.76,16.89,16.89,0,0,1,0-14.31,11.68,11.68,0,0,1,4.46-4.75,14,14,0,0,1,13.35,0,11.59,11.59,0,0,1,4.45,4.77,15.4,15.4,0,0,1,1.59,7.17,15.19,15.19,0,0,1-1.59,7.12,11.62,11.62,0,0,1-4.45,4.76A12.85,12.85,0,0,1,513.44,466.77Zm0-3.88a8,8,0,0,0,4.44-1.22,8.31,8.31,0,0,0,3-3.4,11.48,11.48,0,0,0,1.06-5.07,11.61,11.61,0,0,0-1.06-5.1,8.21,8.21,0,0,0-3-3.39,8,8,0,0,0-4.44-1.22,7.89,7.89,0,0,0-7.38,4.57,12.8,12.8,0,0,0,0,10.2,8.17,8.17,0,0,0,3,3.41A8,8,0,0,0,513.44,462.89Z"/><path class="cls-1" d="M552.2,440.1v3.78h-8.44v22.4h-4.07v-22.4h-8.44V440.1Z"/><path class="cls-1" d="M563.72,462.46h13.57v3.82H559.66V440.1h17.13v3.78H563.72v7.49h11.13V455H563.72Z"/><path class="cls-1" d="M595.94,466.77a13.16,13.16,0,0,1-6.75-1.69,11.67,11.67,0,0,1-4.5-4.76,16.7,16.7,0,0,1,0-14.31,11.71,11.71,0,0,1,4.5-4.75,13.16,13.16,0,0,1,6.75-1.69,13,13,0,0,1,5.83,1.27,11.32,11.32,0,0,1,4.23,3.55,11.49,11.49,0,0,1,2,5.35h-4.42a7.77,7.77,0,0,0-1.5-3.28,7.5,7.5,0,0,0-2.72-2.19,8,8,0,0,0-3.55-.78,8.16,8.16,0,0,0-4.45,1.2,8.06,8.06,0,0,0-3,3.37,12.8,12.8,0,0,0,0,10.2,8.17,8.17,0,0,0,3,3.41,8.61,8.61,0,0,0,8,.44,7.71,7.71,0,0,0,2.72-2.19,7.81,7.81,0,0,0,1.5-3.29H608a11.46,11.46,0,0,1-2,5.32,11.32,11.32,0,0,1-4.23,3.55A13,13,0,0,1,595.94,466.77Z"/><path class="cls-1" d="M634.49,440.1v3.78H626v22.4H622v-22.4h-8.44V440.1Z"/><path class="cls-1" d="M413.5,457.6a4.4,4.4,0,0,1-4.39-4.39,4.33,4.33,0,0,1,1.29-3.12,4.21,4.21,0,0,1,3.1-1.32,4.51,4.51,0,0,1,4.44,4.44,4.21,4.21,0,0,1-1.32,3.1A4.32,4.32,0,0,1,413.5,457.6Z"/><path class="cls-1" d="M371,69.52v216.3A137.25,137.25,0,0,0,390.71,279l.93-.4a125.94,125.94,0,0,0,73.85-114.41V141.73h-47.6v26.13h21.4a99.68,99.68,0,0,1-42.14,77.55V76.66l68.35,18.7V68.27l-68.35-18.7h0L371,42.41V68.84l-.17.63.17,0Z"/><path class="cls-1" d="M358,42.41l-6.77,1.85-19.36,5.29-68.39,18.7v95.89a125.73,125.73,0,0,0,26.13,76.62v-72.9h42.26V275.94c1.57.81,3.14,1.57,4.73,2.31a125.37,125.37,0,0,0,19.33,7l2.07.56V69.51l.13,0L358,69Zm-26.13,99.32H289.56V88.19l42.26-11.53Z"/><path class="cls-1" d="M364.46,0,224.25,38.34v125.8A164.53,164.53,0,0,0,345.56,323.07l18.9,5.2,18.88-5.19A165.12,165.12,0,0,0,504.7,164.14V38.37ZM478.57,164.14A138.94,138.94,0,0,1,376.43,297.88l-12,3.3-12-3.31A138.75,138.75,0,0,1,250.37,164.14V58.29l114.09-31.2L478.57,58.31Z"/></g></g></svg>